<?xml version="1.0" encoding="UTF-8"?>
<svg xmlns="http://www.w3.org/2000/svg" xmlns:xlink="http://www.w3.org/1999/xlink" width="50px" height="px" viewBox="0 0 50 59" version="1.1">
<g id="surface1">
<path style=" stroke:none;fill-rule:nonzero;fill:rgb(0%,26.666667%,50.980392%);fill-opacity:1;" d="M 49.292969 18.265625 C 49.3125 17.421875 49.109375 16.585938 48.699219 15.84375 C 48.28125 15.125 47.671875 14.535156 46.941406 14.132812 C 40.472656 10.40625 34 6.6875 27.523438 2.972656 C 25.78125 1.964844 24.089844 2 22.359375 3.023438 C 19.78125 4.53125 6.886719 11.910156 3.046875 14.132812 C 1.460938 15.046875 0.695312 16.445312 0.695312 18.265625 L 0.695312 40.734375 C 0.675781 41.5625 0.875 42.382812 1.265625 43.113281 C 1.6875 43.851562 2.304688 44.460938 3.050781 44.867188 C 6.894531 47.097656 19.792969 54.464844 22.367188 55.980469 C 24.097656 57.003906 25.789062 57.039062 27.535156 56.035156 C 34.003906 52.304688 40.476562 48.582031 46.953125 44.867188 C 47.699219 44.457031 48.320312 43.847656 48.742188 43.109375 C 49.132812 42.378906 49.328125 41.5625 49.3125 40.734375 L 49.3125 18.265625 Z M 49.292969 18.265625 "/>
<path style=" stroke:none;fill-rule:nonzero;fill:rgb(0%,34.901961%,61.176471%);fill-opacity:1;" d="M 49.296875 40.734375 C 49.316406 41.5625 49.117188 42.382812 48.726562 43.113281 C 48.632812 43.285156 48.523438 43.453125 48.402344 43.613281 L 24.992188 29.5 L 46.941406 14.132812 C 47.671875 14.535156 48.277344 15.125 48.699219 15.84375 C 49.105469 16.585938 49.3125 17.421875 49.292969 18.265625 C 49.296875 25.757812 49.296875 40.734375 49.296875 40.734375 Z M 49.296875 40.734375 "/>
<path style=" stroke:none;fill-rule:nonzero;fill:rgb(39.607843%,60.392157%,82.352941%);fill-opacity:1;" d="M 48.699219 15.84375 L 1.257812 43.113281 C 0.867188 42.382812 0.675781 41.566406 0.691406 40.738281 L 0.691406 18.265625 C 0.691406 16.445312 1.460938 15.046875 3.042969 14.132812 C 6.886719 11.910156 19.78125 4.53125 22.359375 3.019531 C 24.089844 1.996094 25.78125 1.960938 27.523438 2.964844 C 33.992188 6.695312 40.464844 10.417969 46.941406 14.132812 C 47.671875 14.535156 48.277344 15.125 48.699219 15.84375 Z M 48.699219 15.84375 "/>
<path style=" stroke:none;fill-rule:nonzero;fill:rgb(100%,100%,100%);fill-opacity:1;" d="M 25.933594 38.578125 C 22.679688 38.582031 19.679688 36.820312 18.109375 33.980469 C 18.03125 33.839844 17.957031 33.695312 17.886719 33.550781 C 15.914062 29.492188 17.296875 24.605469 21.105469 22.171875 C 24.914062 19.738281 29.945312 20.53125 32.816406 24.015625 C 32.9375 24.160156 33.039062 24.308594 33.160156 24.460938 C 33.210938 24.535156 33.265625 24.609375 33.316406 24.683594 L 41.15625 20.179688 C 40.964844 19.875 40.765625 19.578125 40.554688 19.289062 C 40.445312 19.136719 40.332031 18.988281 40.226562 18.84375 C 34.578125 11.527344 24.257812 9.726562 16.457031 14.699219 C 8.652344 19.671875 5.953125 29.765625 10.242188 37.953125 C 10.316406 38.097656 10.394531 38.238281 10.464844 38.378906 C 13.554688 43.8125 19.269531 47.234375 25.53125 47.402344 C 31.792969 47.566406 37.683594 44.449219 41.054688 39.183594 L 33.390625 34.5625 C 31.742188 37.070312 28.9375 38.578125 25.933594 38.578125 Z M 25.933594 38.578125 "/>
</g>
</svg>
