<?xml version="1.0" encoding="UTF-8"?>
<svg xmlns="http://www.w3.org/2000/svg" xmlns:xlink="http://www.w3.org/1999/xlink" width="50px" height="px" viewBox="0 0 50 56" version="1.1">
<g id="surface1">
<path style=" stroke:none;fill-rule:nonzero;fill:rgb(36.078431%,55.294118%,73.72549%);fill-opacity:1;" d="M 49.914062 16.472656 C 49.914062 15.53125 49.714844 14.703125 49.304688 13.992188 C 48.90625 13.289062 48.304688 12.703125 47.5 12.238281 C 40.855469 8.425781 34.203125 4.621094 27.558594 0.804688 C 25.769531 -0.226562 24.03125 -0.1875 22.253906 0.855469 C 19.609375 2.410156 6.367188 9.960938 2.417969 12.238281 C 0.792969 13.171875 0.00390625 14.605469 0.00390625 16.46875 C 0 24.140625 0.00390625 31.8125 0 39.484375 C 0 40.402344 0.195312 41.214844 0.582031 41.917969 C 0.984375 42.636719 1.59375 43.242188 2.417969 43.714844 C 6.363281 45.992188 19.609375 53.542969 22.253906 55.097656 C 24.03125 56.140625 25.769531 56.179688 27.558594 55.148438 C 34.203125 51.332031 40.855469 47.527344 47.5 43.714844 C 48.324219 43.238281 48.933594 42.636719 49.335938 41.914062 C 49.722656 41.214844 49.917969 40.398438 49.917969 39.480469 C 49.917969 39.480469 49.917969 24.144531 49.914062 16.472656 "/>
<path style=" stroke:none;fill-rule:nonzero;fill:rgb(10.196078%,27.45098%,45.490196%);fill-opacity:1;" d="M 25.035156 27.902344 L 0.582031 41.917969 C 0.984375 42.636719 1.59375 43.242188 2.417969 43.714844 C 6.363281 45.992188 19.609375 53.542969 22.253906 55.097656 C 24.03125 56.140625 25.769531 56.179688 27.558594 55.148438 C 34.203125 51.332031 40.855469 47.527344 47.5 43.714844 C 48.324219 43.238281 48.933594 42.636719 49.335938 41.914062 L 25.035156 27.902344 "/>
<path style=" stroke:none;fill-rule:nonzero;fill:rgb(10.196078%,27.45098%,45.490196%);fill-opacity:1;" d="M 17.792969 32.054688 C 19.214844 34.527344 21.890625 36.195312 24.960938 36.195312 C 28.046875 36.195312 30.738281 34.503906 32.152344 32.003906 L 25.035156 27.902344 L 17.792969 32.054688 "/>
<path style=" stroke:none;fill-rule:nonzero;fill:rgb(10.588235%,34.901961%,55.686275%);fill-opacity:1;" d="M 49.914062 16.472656 C 49.914062 15.53125 49.714844 14.703125 49.304688 13.992188 L 25.035156 27.902344 L 49.335938 41.914062 C 49.722656 41.214844 49.917969 40.398438 49.917969 39.480469 C 49.917969 39.480469 49.917969 24.144531 49.914062 16.472656 "/>
<path style=" stroke:none;fill-rule:nonzero;fill:rgb(100%,100%,100%);fill-opacity:1;" d="M 48.578125 28.902344 L 46.679688 28.902344 L 46.679688 30.792969 L 44.78125 30.792969 L 44.78125 28.902344 L 42.882812 28.902344 L 42.882812 27.011719 L 44.78125 27.011719 L 44.78125 25.125 L 46.679688 25.125 L 46.679688 27.011719 L 48.578125 27.011719 L 48.578125 28.902344 M 41.652344 28.902344 L 39.753906 28.902344 L 39.753906 30.792969 L 37.851562 30.792969 L 37.851562 28.902344 L 35.953125 28.902344 L 35.953125 27.011719 L 37.851562 27.011719 L 37.851562 25.125 L 39.753906 25.125 L 39.753906 27.011719 L 41.652344 27.011719 L 41.652344 28.902344 "/>
<path style=" stroke:none;fill-rule:nonzero;fill:rgb(100%,100%,100%);fill-opacity:1;" d="M 32.152344 32.003906 C 30.738281 34.503906 28.046875 36.195312 24.960938 36.195312 C 21.890625 36.195312 19.214844 34.527344 17.792969 32.054688 C 17.078125 30.8125 16.703125 29.40625 16.703125 27.976562 C 16.703125 23.4375 20.398438 19.757812 24.960938 19.757812 C 28.007812 19.757812 30.667969 21.40625 32.097656 23.855469 L 39.3125 19.71875 C 36.445312 14.789062 31.089844 11.476562 24.960938 11.476562 C 15.804688 11.476562 8.382812 18.863281 8.382812 27.976562 C 8.382812 30.964844 9.179688 33.769531 10.578125 36.1875 C 13.4375 41.140625 18.808594 44.476562 24.960938 44.476562 C 31.121094 44.476562 36.5 41.128906 39.355469 36.160156 L 32.152344 32.003906 "/>
</g>
</svg>
