<?xml version="1.0" encoding="UTF-8"?>
<svg xmlns="http://www.w3.org/2000/svg" xmlns:xlink="http://www.w3.org/1999/xlink" width="50px" height="px" viewBox="0 0 51 16" version="1.1">
<defs>
<filter id="alpha" filterUnits="objectBoundingBox" x="0%" y="0%" width="100%" height="100%">
  <feColorMatrix type="matrix" in="SourceGraphic" values="0 0 0 0 1 0 0 0 0 1 0 0 0 0 1 0 0 0 1 0"/>
</filter>
<mask id="mask0">
  <g filter="url(#alpha)">
<rect x="0" y="0" width="51" height="16" style="fill:rgb(0%,0%,0%);fill-opacity:0.541176;stroke:none;"/>
  </g>
</mask>
<clipPath id="clip1">
  <rect x="0" y="0" width="51" height="16"/>
</clipPath>
<g id="surface5" clip-path="url(#clip1)">
<path style=" stroke:none;fill-rule:nonzero;fill:rgb(0%,0%,0%);fill-opacity:1;" d="M 24.058594 2.355469 L 27.253906 2.355469 C 28.339844 2.355469 29.285156 2.578125 30.09375 3.03125 C 30.902344 3.480469 31.523438 4.109375 31.957031 4.910156 C 32.390625 5.710938 32.605469 6.632812 32.605469 7.675781 C 32.605469 8.714844 32.390625 9.636719 31.957031 10.4375 C 31.523438 11.242188 30.902344 11.867188 30.09375 12.320312 C 29.285156 12.769531 28.339844 12.996094 27.253906 12.996094 L 24.058594 12.996094 Z M 27.253906 11.792969 C 28.507812 11.792969 29.5 11.429688 30.234375 10.707031 C 30.96875 9.984375 31.335938 8.972656 31.335938 7.675781 C 31.335938 6.378906 30.96875 5.367188 30.234375 4.644531 C 29.5 3.917969 28.507812 3.558594 27.253906 3.558594 L 25.304688 3.558594 L 25.304688 11.792969 Z M 27.253906 11.792969 "/>
<path style=" stroke:none;fill-rule:nonzero;fill:rgb(0%,0%,0%);fill-opacity:1;" d="M 34.542969 12.90625 C 34.109375 12.6875 33.773438 12.390625 33.535156 12.007812 C 33.300781 11.625 33.179688 11.191406 33.179688 10.707031 C 33.179688 9.902344 33.480469 9.277344 34.082031 8.828125 C 34.683594 8.375 35.441406 8.152344 36.359375 8.152344 C 36.8125 8.152344 37.234375 8.199219 37.625 8.300781 C 38.011719 8.398438 38.3125 8.511719 38.519531 8.640625 L 38.519531 8.179688 C 38.519531 7.617188 38.320312 7.164062 37.925781 6.820312 C 37.535156 6.480469 37.035156 6.308594 36.433594 6.308594 C 36.011719 6.308594 35.621094 6.402344 35.265625 6.582031 C 34.910156 6.765625 34.628906 7.023438 34.421875 7.347656 L 33.476562 6.636719 C 33.773438 6.179688 34.179688 5.824219 34.695312 5.566406 C 35.214844 5.308594 35.789062 5.179688 36.417969 5.179688 C 37.445312 5.179688 38.25 5.449219 38.835938 5.988281 C 39.421875 6.53125 39.714844 7.265625 39.714844 8.195312 L 39.714844 12.996094 L 38.519531 12.996094 L 38.519531 11.910156 L 38.460938 11.910156 C 38.242188 12.277344 37.917969 12.589844 37.484375 12.847656 C 37.050781 13.105469 36.5625 13.234375 36.019531 13.234375 C 35.46875 13.234375 34.976562 13.125 34.542969 12.90625 Z M 37.320312 11.792969 C 37.683594 11.574219 37.976562 11.28125 38.191406 10.917969 C 38.410156 10.550781 38.519531 10.148438 38.519531 9.710938 C 38.28125 9.554688 37.992188 9.425781 37.648438 9.324219 C 37.300781 9.226562 36.9375 9.175781 36.550781 9.175781 C 35.863281 9.175781 35.34375 9.320312 34.992188 9.609375 C 34.644531 9.894531 34.46875 10.265625 34.46875 10.722656 C 34.46875 11.136719 34.625 11.476562 34.941406 11.730469 C 35.257812 11.988281 35.65625 12.121094 36.140625 12.121094 C 36.5625 12.121094 36.957031 12.011719 37.320312 11.792969 Z M 37.320312 11.792969 "/>
<path style=" stroke:none;fill-rule:nonzero;fill:rgb(0%,0%,0%);fill-opacity:1;" d="M 41.042969 5.535156 L 42.238281 5.535156 L 42.238281 6.738281 L 42.300781 6.738281 C 42.476562 6.292969 42.777344 5.945312 43.199219 5.699219 C 43.625 5.453125 44.085938 5.328125 44.589844 5.328125 C 44.808594 5.328125 44.988281 5.34375 45.136719 5.371094 L 45.136719 6.664062 C 44.96875 6.625 44.742188 6.605469 44.457031 6.605469 C 43.816406 6.605469 43.296875 6.820312 42.898438 7.246094 C 42.5 7.671875 42.300781 8.226562 42.300781 8.910156 L 42.300781 13.113281 L 41.042969 13.113281 Z M 48.847656 13.082031 C 48.585938 12.984375 48.367188 12.847656 48.1875 12.675781 C 47.992188 12.484375 47.84375 12.261719 47.746094 12.007812 C 47.644531 11.757812 47.597656 11.449219 47.597656 11.085938 L 47.597656 6.5625 L 46.28125 6.5625 L 46.28125 5.417969 L 47.597656 5.417969 L 47.597656 3.277344 L 48.851562 3.277344 L 48.851562 5.417969 L 50.683594 5.417969 L 50.683594 6.5625 L 48.851562 6.5625 L 48.851562 10.785156 C 48.851562 11.210938 48.929688 11.523438 49.089844 11.726562 C 49.277344 11.949219 49.546875 12.0625 49.902344 12.0625 C 50.1875 12.0625 50.464844 11.976562 50.730469 11.808594 L 50.730469 13.042969 C 50.582031 13.109375 50.429688 13.160156 50.277344 13.191406 C 50.125 13.222656 49.929688 13.234375 49.695312 13.234375 C 49.390625 13.234375 49.109375 13.183594 48.847656 13.082031 Z M 48.847656 13.082031 "/>
</g>
<mask id="mask1">
  <g filter="url(#alpha)">
<rect x="0" y="0" width="51" height="16" style="fill:rgb(0%,0%,0%);fill-opacity:0.2;stroke:none;"/>
  </g>
</mask>
<clipPath id="clip2">
  <rect x="0" y="0" width="51" height="16"/>
</clipPath>
<g id="surface8" clip-path="url(#clip2)">
<path style=" stroke:none;fill-rule:nonzero;fill:rgb(100%,100%,100%);fill-opacity:1;" d="M 3.59375 12.800781 C 3.179688 12.382812 3.074219 11.96875 3.074219 11.234375 L 3.074219 2.886719 L 2.96875 2.78125 L 2.96875 11.234375 C 2.972656 11.96875 2.972656 12.171875 3.59375 12.800781 L 3.90625 13.113281 Z M 3.59375 12.800781 "/>
</g>
<mask id="mask2">
  <g filter="url(#alpha)">
<rect x="0" y="0" width="51" height="16" style="fill:rgb(0%,0%,0%);fill-opacity:0.2;stroke:none;"/>
  </g>
</mask>
<clipPath id="clip3">
  <rect x="0" y="0" width="51" height="16"/>
</clipPath>
<g id="surface11" clip-path="url(#clip3)">
<path style=" stroke:none;fill-rule:nonzero;fill:rgb(14.901961%,19.607843%,21.960784%);fill-opacity:1;" d="M 15.949219 6.539062 L 15.949219 13.007812 L 13.144531 13.007812 L 13.25 13.113281 L 16.050781 13.113281 L 16.050781 6.644531 Z M 15.949219 6.539062 "/>
</g>
<mask id="mask3">
  <g filter="url(#alpha)">
<rect x="0" y="0" width="51" height="16" style="fill:rgb(0%,0%,0%);fill-opacity:0.2;stroke:none;"/>
  </g>
</mask>
<clipPath id="clip4">
  <rect x="0" y="0" width="51" height="16"/>
</clipPath>
<g id="surface14" clip-path="url(#clip4)">
<path style=" stroke:none;fill-rule:nonzero;fill:rgb(100%,100%,100%);fill-opacity:1;" d="M 12.730469 3.304688 C 12.214844 2.785156 11.792969 2.78125 11.171875 2.78125 L 2.972656 2.78125 L 3.074219 2.886719 L 11.171875 2.886719 C 11.480469 2.886719 12.265625 2.835938 12.730469 3.304688 Z M 12.730469 3.304688 "/>
</g>
<mask id="mask4">
  <g filter="url(#alpha)">
<rect x="0" y="0" width="51" height="16" style="fill:rgb(0%,0%,0%);fill-opacity:0.2;stroke:none;"/>
  </g>
</mask>
<radialGradient id="radial0" gradientUnits="userSpaceOnUse" cx="69.955" cy="60.8864" fx="69.955" fy="60.8864" r="68.065" gradientTransform="matrix(0.115928,0,0,-0.116542,0.0538641,15.095963)">
<stop offset="0" style="stop-color:rgb(100%,100%,100%);stop-opacity:0.101961;"/>
<stop offset="1" style="stop-color:rgb(100%,100%,100%);stop-opacity:0;"/>
</radialGradient>
<clipPath id="clip5">
  <rect x="0" y="0" width="51" height="16"/>
</clipPath>
<g id="surface17" clip-path="url(#clip5)">
<path style=" stroke:none;fill-rule:nonzero;fill:url(#radial0);" d="M 15.949219 6.539062 L 12.730469 3.304688 L 10.03125 0.589844 C 9.796875 0.351562 9.304688 0.0703125 8.890625 0.0703125 C 8.53125 0.0703125 8.179688 0.140625 7.953125 0.277344 L 2.972656 2.78125 L 0.480469 8 C 0.390625 8.1875 0.273438 8.519531 0.273438 8.730469 C 0.273438 9.1875 0.472656 9.652344 0.792969 9.984375 L 3.28125 12.464844 C 3.339844 12.539062 3.410156 12.613281 3.492188 12.695312 L 3.910156 13.113281 L 6.605469 15.828125 L 6.710938 15.933594 L 13.253906 15.933594 L 13.253906 13.113281 L 16.054688 13.113281 L 16.054688 6.644531 Z M 15.949219 6.539062 "/>
</g>
</defs>
<g id="surface1">
<use xlink:href="#surface5" mask="url(#mask0)"/>
<path style=" stroke:none;fill-rule:nonzero;fill:rgb(0.392157%,34.117647%,60.784314%);fill-opacity:1;" d="M 3.488281 12.695312 L 0.792969 9.984375 C 0.472656 9.652344 0.273438 9.1875 0.273438 8.730469 C 0.273438 8.519531 0.390625 8.1875 0.480469 8 L 2.96875 2.78125 Z M 3.488281 12.695312 "/>
<path style=" stroke:none;fill-rule:nonzero;fill:rgb(25.098039%,76.862745%,100%);fill-opacity:1;" d="M 12.730469 3.304688 L 10.03125 0.589844 C 9.796875 0.351562 9.304688 0.0703125 8.890625 0.0703125 C 8.53125 0.0703125 8.179688 0.140625 7.953125 0.277344 L 2.972656 2.78125 Z M 12.730469 3.304688 "/>
<path style=" stroke:none;fill-rule:nonzero;fill:rgb(25.098039%,76.862745%,100%);fill-opacity:1;" d="M 6.707031 15.929688 L 13.25 15.929688 L 13.25 13.113281 L 8.371094 11.546875 L 3.90625 13.113281 Z M 6.707031 15.929688 "/>
<path style=" stroke:none;fill-rule:nonzero;fill:rgb(16.078431%,71.372549%,96.470588%);fill-opacity:1;" d="M 2.972656 11.234375 C 2.972656 12.074219 3.074219 12.277344 3.492188 12.695312 L 3.90625 13.113281 L 13.25 13.113281 L 8.679688 7.898438 L 2.972656 2.78125 Z M 2.972656 11.234375 "/>
<path style=" stroke:none;fill-rule:nonzero;fill:rgb(0.392157%,34.117647%,60.784314%);fill-opacity:1;" d="M 11.277344 2.78125 L 2.96875 2.78125 L 13.246094 13.113281 L 16.050781 13.113281 L 16.050781 6.644531 L 12.730469 3.304688 C 12.261719 2.832031 11.847656 2.78125 11.277344 2.78125 Z M 11.277344 2.78125 "/>
<use xlink:href="#surface8" mask="url(#mask1)"/>
<use xlink:href="#surface11" mask="url(#mask2)"/>
<use xlink:href="#surface14" mask="url(#mask3)"/>
<use xlink:href="#surface17" mask="url(#mask4)"/>
</g>
</svg>
