<?xml version="1.0" encoding="UTF-8"?>
<svg xmlns="http://www.w3.org/2000/svg" xmlns:xlink="http://www.w3.org/1999/xlink" width="50px" height="px" viewBox="0 0 50 14" version="1.1">
<g id="surface1">
<path style=" stroke:none;fill-rule:nonzero;fill:rgb(0%,0%,0%);fill-opacity:1;" d="M 12.085938 0.0117188 L 12.085938 10.800781 L 13.449219 10.804688 L 13.449219 5.671875 L 16.746094 5.671875 L 16.746094 4.3125 L 13.449219 4.3125 L 13.449219 1.371094 L 17.738281 1.371094 L 17.738281 0.0117188 Z M 20.199219 2.199219 C 20.695312 2.199219 21.089844 1.792969 21.089844 1.296875 C 21.089844 0.800781 20.691406 0.390625 20.199219 0.390625 C 19.707031 0.390625 19.3125 0.800781 19.3125 1.296875 C 19.3125 1.792969 19.710938 2.199219 20.199219 2.199219 Z M 19.507812 3.558594 L 19.507812 10.800781 L 20.871094 10.800781 L 20.871094 3.558594 Z M 19.507812 3.558594 "/>
<path style=" stroke:none;fill-rule:evenodd;fill:rgb(0%,0%,0%);fill-opacity:1;" d="M 25.9375 3.347656 C 24.121094 3.347656 22.855469 4.910156 22.855469 6.757812 C 22.855469 8.609375 24.121094 10.171875 25.9375 10.171875 C 26.769531 10.171875 27.453125 9.84375 27.953125 9.3125 L 27.953125 10.269531 C 27.953125 11.472656 27.023438 12.46875 25.8125 12.46875 C 25.375 12.46875 24.941406 12.300781 24.597656 12.058594 L 23.914062 13.265625 C 24.457031 13.625 25.109375 13.828125 25.808594 13.828125 C 27.742188 13.828125 29.308594 12.238281 29.308594 10.269531 L 29.308594 3.558594 L 27.953125 3.558594 L 27.953125 4.207031 C 27.453125 3.675781 26.769531 3.347656 25.9375 3.347656 Z M 24.222656 6.757812 C 24.222656 5.613281 25.089844 4.707031 26.085938 4.707031 C 27.085938 4.707031 27.953125 5.613281 27.953125 6.757812 C 27.953125 7.90625 27.085938 8.8125 26.085938 8.8125 C 25.089844 8.8125 24.222656 7.90625 24.222656 6.757812 Z M 24.222656 6.757812 "/>
<path style=" stroke:none;fill-rule:nonzero;fill:rgb(0%,0%,0%);fill-opacity:1;" d="M 34.238281 4.707031 C 33.433594 4.707031 32.777344 5.40625 32.777344 6.226562 L 32.777344 10.800781 L 31.414062 10.800781 L 31.414062 3.558594 L 32.777344 3.558594 L 32.777344 4.222656 C 33.175781 3.699219 33.765625 3.347656 34.535156 3.347656 C 35.492188 3.347656 36.226562 3.828125 36.652344 4.570312 C 37.128906 3.855469 37.898438 3.347656 38.828125 3.347656 C 40.386719 3.347656 41.355469 4.621094 41.359375 6.199219 L 41.359375 10.800781 L 39.996094 10.800781 L 39.996094 6.21875 C 39.996094 5.398438 39.339844 4.703125 38.535156 4.703125 C 37.726562 4.703125 37.070312 5.398438 37.070312 6.21875 L 37.070312 10.800781 L 35.707031 10.800781 L 35.707031 6.21875 C 35.703125 5.398438 35.046875 4.707031 34.238281 4.707031 Z M 34.238281 4.707031 "/>
<path style=" stroke:none;fill-rule:evenodd;fill:rgb(0%,0%,0%);fill-opacity:1;" d="M 48.636719 4.378906 C 48.027344 3.738281 47.195312 3.347656 46.230469 3.347656 C 44.203125 3.347656 42.753906 5.097656 42.753906 7.183594 C 42.753906 9.265625 44.195312 11.015625 46.230469 11.015625 C 47.195312 11.015625 48.027344 10.621094 48.636719 9.984375 L 48.636719 10.800781 L 50 10.800781 L 50 3.558594 L 48.636719 3.558594 Z M 44.125 7.183594 C 44.125 5.800781 45.164062 4.707031 46.382812 4.707031 C 47.59375 4.707031 48.640625 5.796875 48.640625 7.183594 C 48.640625 8.5625 47.601562 9.65625 46.382812 9.65625 C 45.164062 9.652344 44.125 8.5625 44.125 7.183594 Z M 44.125 7.183594 "/>
<path style=" stroke:none;fill-rule:nonzero;fill:rgb(10.196078%,73.72549%,99.607843%);fill-opacity:1;" d="M 4.585938 7.003906 C 4.585938 5.71875 5.609375 4.671875 6.882812 4.671875 C 8.144531 4.671875 9.175781 5.710938 9.175781 7.003906 C 9.175781 8.289062 8.152344 9.335938 6.882812 9.335938 C 5.617188 9.335938 4.585938 8.289062 4.585938 7.003906 Z M 4.585938 7.003906 "/>
<path style=" stroke:none;fill-rule:nonzero;fill:rgb(3.921569%,81.176471%,51.372549%);fill-opacity:1;" d="M 0 11.660156 C 0 10.375 1.027344 9.328125 2.296875 9.328125 L 4.589844 9.328125 L 4.589844 11.660156 C 4.589844 12.945312 3.566406 13.992188 2.296875 13.992188 C 1.027344 13.992188 0 12.953125 0 11.660156 Z M 0 11.660156 "/>
<path style=" stroke:none;fill-rule:nonzero;fill:rgb(100%,44.705882%,38.431373%);fill-opacity:1;" d="M 4.585938 0.0117188 L 4.585938 4.671875 L 6.882812 4.671875 C 8.144531 4.671875 9.175781 3.628906 9.175781 2.339844 C 9.175781 1.054688 8.152344 0.0078125 6.882812 0.0078125 L 4.585938 0.0078125 Z M 4.585938 0.0117188 "/>
<path style=" stroke:none;fill-rule:nonzero;fill:rgb(94.901961%,30.588235%,11.764706%);fill-opacity:1;" d="M 0 2.34375 C 0 3.628906 1.027344 4.675781 2.296875 4.675781 L 4.589844 4.675781 L 4.589844 0.0117188 L 2.296875 0.0117188 C 1.027344 0.0117188 0 1.054688 0 2.34375 Z M 0 2.34375 "/>
<path style=" stroke:none;fill-rule:nonzero;fill:rgb(63.529412%,34.901961%,100%);fill-opacity:1;" d="M 0 7.003906 C 0 8.289062 1.027344 9.335938 2.296875 9.335938 L 4.589844 9.335938 L 4.589844 4.671875 L 2.296875 4.671875 C 1.027344 4.671875 0 5.71875 0 7.003906 Z M 0 7.003906 "/>
</g>
</svg>
