<?xml version="1.0" encoding="UTF-8"?>
<svg xmlns="http://www.w3.org/2000/svg" xmlns:xlink="http://www.w3.org/1999/xlink" width="50px" height="px" viewBox="0 0 49 14" version="1.1">
<defs>
<filter id="alpha" filterUnits="objectBoundingBox" x="0%" y="0%" width="100%" height="100%">
  <feColorMatrix type="matrix" in="SourceGraphic" values="0 0 0 0 1 0 0 0 0 1 0 0 0 0 1 0 0 0 1 0"/>
</filter>
<mask id="mask0">
  <g filter="url(#alpha)">
<rect x="0" y="0" width="49" height="14" style="fill:rgb(0%,0%,0%);fill-opacity:0.541176;stroke:none;"/>
  </g>
</mask>
<clipPath id="clip1">
  <rect x="0" y="0" width="49" height="14"/>
</clipPath>
<g id="surface5" clip-path="url(#clip1)">
<path style=" stroke:none;fill-rule:nonzero;fill:rgb(0%,0%,0%);fill-opacity:1;" d="M 17.109375 3.152344 L 21.6875 3.152344 L 21.683594 4.054688 C 20.488281 4.054688 19.289062 4.050781 18.09375 4.054688 C 18 4.085938 18.042969 4.199219 18.035156 4.273438 L 18.035156 6.699219 C 18.066406 6.789062 18.183594 6.746094 18.253906 6.757812 L 21.324219 6.753906 L 21.324219 7.65625 C 20.371094 7.65625 19.414062 7.65625 18.460938 7.65625 C 18.320312 7.65625 18.175781 7.648438 18.035156 7.671875 L 18.023438 11.097656 C 17.714844 11.085938 17.410156 11.097656 17.101562 11.089844 L 17.101562 3.296875 Z M 22.796875 3.152344 L 23.734375 3.152344 L 23.738281 8.542969 L 23.726562 11.082031 C 23.421875 11.078125 23.113281 11.074219 22.808594 11.085938 C 22.785156 10.957031 22.796875 10.832031 22.796875 10.703125 Z M 31.996094 3.820312 L 32.9375 3.820312 L 32.941406 5.417969 C 33.402344 5.429688 33.863281 5.394531 34.324219 5.433594 C 34.3125 5.71875 34.324219 6.003906 34.316406 6.292969 C 33.859375 6.292969 33.402344 6.296875 32.941406 6.289062 L 32.941406 9.46875 C 32.949219 9.761719 33.011719 10.117188 33.296875 10.269531 C 33.625 10.453125 34.027344 10.367188 34.335938 10.1875 L 34.335938 11.113281 C 33.992188 11.265625 33.605469 11.285156 33.242188 11.234375 C 32.726562 11.15625 32.230469 10.804688 32.074219 10.292969 C 31.972656 10.015625 31.996094 9.710938 31.992188 9.417969 L 31.992188 6.324219 L 31.96875 6.296875 C 31.644531 6.28125 31.316406 6.300781 30.992188 6.289062 C 30.992188 6 30.980469 5.707031 30.996094 5.417969 C 31.328125 5.410156 31.660156 5.429688 31.992188 5.40625 Z M 35.980469 3.816406 C 36.292969 3.828125 36.605469 3.8125 36.917969 3.824219 L 36.941406 3.847656 C 36.953125 4.371094 36.925781 4.898438 36.953125 5.421875 C 37.402344 5.414062 37.847656 5.417969 38.292969 5.417969 L 38.296875 6.285156 C 37.847656 6.300781 37.394531 6.292969 36.945312 6.289062 L 36.941406 9.523438 C 36.941406 9.804688 37.023438 10.136719 37.292969 10.273438 C 37.628906 10.457031 38.03125 10.363281 38.34375 10.175781 L 38.34375 11.105469 C 38.011719 11.253906 37.636719 11.285156 37.28125 11.242188 C 36.820312 11.179688 36.363281 10.917969 36.148438 10.496094 C 36.042969 10.273438 35.984375 10.027344 35.972656 9.78125 L 35.972656 6.292969 C 35.648438 6.292969 35.324219 6.292969 35 6.292969 L 35 5.414062 C 35.320312 5.421875 35.640625 5.410156 35.960938 5.421875 C 35.996094 4.890625 35.960938 4.351562 35.980469 3.816406 Z M 40.554688 5.445312 C 41.207031 5.175781 41.957031 5.171875 42.625 5.398438 C 43.386719 5.660156 43.972656 6.324219 44.191406 7.097656 C 44.332031 7.523438 44.324219 7.980469 44.304688 8.425781 L 39.828125 8.429688 C 39.867188 8.90625 40.007812 9.390625 40.339844 9.75 C 40.8125 10.300781 41.621094 10.503906 42.304688 10.289062 C 42.785156 10.144531 43.160156 9.777344 43.40625 9.351562 C 43.675781 9.472656 43.941406 9.613281 44.214844 9.738281 C 43.84375 10.445312 43.167969 11.007812 42.375 11.160156 C 41.722656 11.285156 41.011719 11.285156 40.414062 10.964844 C 39.636719 10.578125 39.101562 9.792969 38.949219 8.949219 C 38.839844 8.300781 38.875 7.613281 39.117188 7 C 39.375 6.324219 39.890625 5.738281 40.554688 5.445312 M 40.910156 6.261719 C 40.363281 6.511719 40.011719 7.078125 39.898438 7.65625 L 43.332031 7.644531 C 43.277344 7.265625 43.144531 6.882812 42.867188 6.605469 C 42.378906 6.085938 41.546875 5.984375 40.910156 6.261719 Z M 46.34375 6.335938 C 46.703125 5.464844 47.800781 5.007812 48.671875 5.371094 L 48.671875 6.386719 C 48.308594 6.242188 47.898438 6.15625 47.511719 6.269531 C 46.984375 6.425781 46.59375 6.898438 46.445312 7.414062 C 46.339844 7.765625 46.378906 8.128906 46.382812 8.488281 C 46.34375 8.953125 46.402344 9.417969 46.375 9.882812 C 46.398438 10.285156 46.351562 10.683594 46.386719 11.085938 C 46.066406 11.101562 45.746094 11.085938 45.425781 11.09375 C 45.410156 9.886719 45.425781 8.675781 45.417969 7.464844 L 45.425781 5.425781 C 45.726562 5.433594 46.027344 5.425781 46.328125 5.433594 C 46.355469 5.734375 46.292969 6.035156 46.34375 6.335938 Z M 25.085938 5.414062 C 25.402344 5.429688 25.722656 5.394531 26.042969 5.433594 L 26.035156 8.804688 C 26.035156 9.21875 26.09375 9.667969 26.378906 9.988281 C 26.746094 10.394531 27.367188 10.46875 27.871094 10.308594 C 28.542969 10.070312 29.011719 9.355469 28.984375 8.644531 L 28.996094 5.414062 L 29.953125 5.417969 L 29.949219 11.082031 C 29.644531 11.078125 29.339844 11.082031 29.035156 11.078125 L 29.03125 10.273438 C 28.835938 10.519531 28.628906 10.769531 28.347656 10.925781 C 27.769531 11.292969 27.035156 11.339844 26.386719 11.152344 C 25.972656 11.027344 25.609375 10.734375 25.398438 10.351562 C 25.148438 9.929688 25.085938 9.433594 25.074219 8.953125 Z M 25.085938 5.414062 "/>
</g>
</defs>
<g id="surface1">
<path style=" stroke:none;fill-rule:nonzero;fill:rgb(26.666667%,81.960784%,99.215686%);fill-opacity:1;" d="M 7.007812 0.210938 L 11.207031 0.207031 L 4.160156 7.253906 L 2.324219 9.082031 L 0.234375 6.988281 Z M 6.96875 6.503906 C 7.023438 6.433594 7.121094 6.46875 7.199219 6.457031 L 11.203125 6.460938 L 7.554688 10.109375 L 5.453125 8.019531 Z M 6.96875 6.503906 "/>
<use xlink:href="#surface5" mask="url(#mask0)"/>
<path style=" stroke:none;fill-rule:nonzero;fill:rgb(12.156863%,73.72549%,99.215686%);fill-opacity:1;" d="M 3.359375 10.113281 L 5.453125 8.019531 L 7.554688 10.109375 L 7.5625 10.117188 L 5.453125 12.207031 Z M 3.359375 10.113281 "/>
<path style=" stroke:none;fill-rule:nonzero;fill:rgb(3.137255%,34.509804%,61.176471%);fill-opacity:1;" d="M 5.453125 12.207031 L 7.5625 10.117188 L 11.203125 13.765625 C 9.832031 13.769531 8.460938 13.765625 7.089844 13.769531 C 7.011719 13.785156 6.964844 13.714844 6.914062 13.671875 Z M 5.453125 12.207031 "/>
</g>
</svg>
