<?xml version="1.0" encoding="UTF-8"?>
<svg xmlns="http://www.w3.org/2000/svg" xmlns:xlink="http://www.w3.org/1999/xlink" width="50px" height="px" viewBox="0 0 49 21" version="1.1">
<g id="surface1">
<path style=" stroke:none;fill-rule:nonzero;fill:rgb(18.431373%,15.294118%,2.745098%);fill-opacity:1;" d="M 29.28125 7.234375 C 28.210938 7.234375 27.414062 7.769531 27.414062 9.054688 C 27.414062 10.023438 27.9375 10.695312 29.222656 10.695312 C 30.3125 10.695312 31.054688 10.042969 31.054688 9.011719 C 31.054688 7.847656 30.390625 7.234375 29.28125 7.234375 Z M 27.140625 16.3125 C 26.886719 16.628906 26.632812 16.964844 26.632812 17.359375 C 26.632812 18.148438 27.625 18.386719 28.988281 18.386719 C 30.121094 18.386719 31.65625 18.308594 31.65625 17.242188 C 31.65625 16.609375 30.917969 16.570312 29.984375 16.507812 Z M 32.902344 7.292969 C 33.253906 7.75 33.625 8.382812 33.625 9.292969 C 33.625 11.484375 31.929688 12.769531 29.476562 12.769531 C 28.855469 12.769531 28.289062 12.691406 27.9375 12.59375 L 27.296875 13.640625 L 29.203125 13.761719 C 32.574219 13.976562 34.558594 14.078125 34.558594 16.707031 C 34.558594 18.980469 32.59375 20.265625 29.203125 20.265625 C 25.679688 20.265625 24.335938 19.355469 24.335938 17.792969 C 24.335938 16.902344 24.726562 16.429688 25.40625 15.777344 C 24.765625 15.5 24.550781 15.007812 24.550781 14.472656 C 24.550781 14.035156 24.765625 13.640625 25.117188 13.265625 C 25.464844 12.890625 25.855469 12.515625 26.324219 12.078125 C 25.367188 11.605469 24.648438 10.578125 24.648438 9.113281 C 24.648438 6.839844 26.128906 5.277344 29.105469 5.277344 C 29.945312 5.277344 30.449219 5.355469 30.898438 5.476562 L 34.695312 5.476562 L 34.695312 7.15625 Z M 38.121094 3.699219 C 37.011719 3.699219 36.367188 3.046875 36.367188 1.917969 C 36.367188 0.792969 37.011719 0.179688 38.121094 0.179688 C 39.25 0.179688 39.894531 0.792969 39.894531 1.917969 C 39.894531 3.046875 39.25 3.699219 38.121094 3.699219 Z M 35.609375 15.585938 L 35.609375 14.023438 L 36.601562 13.882812 C 36.875 13.84375 36.914062 13.785156 36.914062 13.488281 L 36.914062 7.675781 C 36.914062 7.457031 36.855469 7.316406 36.660156 7.257812 L 35.609375 6.882812 L 35.824219 5.28125 L 39.855469 5.28125 L 39.855469 13.488281 C 39.855469 13.804688 39.875 13.84375 40.167969 13.886719 L 41.160156 14.023438 L 41.160156 15.585938 Z M 48.859375 14.816406 C 48.023438 15.234375 46.796875 15.609375 45.683594 15.609375 C 43.367188 15.609375 42.492188 14.660156 42.492188 12.425781 L 42.492188 7.242188 C 42.492188 7.125 42.492188 7.046875 42.335938 7.046875 L 40.972656 7.046875 L 40.972656 5.285156 C 42.6875 5.085938 43.367188 4.21875 43.582031 2.0625 L 45.433594 2.0625 L 45.433594 4.871094 C 45.433594 5.007812 45.433594 5.066406 45.589844 5.066406 L 48.332031 5.066406 L 48.332031 7.046875 L 45.433594 7.046875 L 45.433594 11.773438 C 45.433594 12.9375 45.707031 13.394531 46.757812 13.394531 C 47.300781 13.394531 47.867188 13.253906 48.332031 13.078125 L 48.859375 14.816406 "/>
<path style=" stroke:none;fill-rule:nonzero;fill:rgb(87.058824%,29.803922%,21.176471%);fill-opacity:1;" d="M 20.007812 9.628906 L 11.105469 0.585938 C 10.589844 0.0664062 9.757812 0.0664062 9.246094 0.585938 L 7.398438 2.464844 L 9.742188 4.847656 C 10.304688 4.652344 10.929688 4.800781 11.347656 5.226562 C 11.769531 5.65625 11.914062 6.292969 11.71875 6.863281 L 13.976562 9.160156 C 14.523438 8.96875 15.15625 9.09375 15.59375 9.539062 C 16.203125 10.15625 16.203125 11.160156 15.59375 11.78125 C 15.066406 12.316406 14.242188 12.398438 13.621094 11.980469 C 13 11.5625 12.757812 10.753906 13.042969 10.054688 L 10.933594 7.914062 L 10.933594 13.546875 C 11.085938 13.625 11.226562 13.726562 11.347656 13.847656 C 11.957031 14.46875 11.957031 15.472656 11.347656 16.09375 C 10.738281 16.710938 9.746094 16.710938 9.136719 16.09375 C 8.769531 15.71875 8.609375 15.179688 8.710938 14.65625 C 8.8125 14.136719 9.164062 13.703125 9.648438 13.5 L 9.648438 7.816406 C 9.457031 7.738281 9.285156 7.617188 9.136719 7.46875 C 8.675781 7 8.566406 6.3125 8.800781 5.734375 L 6.488281 3.386719 L 0.386719 9.585938 C -0.128906 10.105469 -0.128906 10.953125 0.386719 11.472656 L 9.289062 20.515625 C 9.800781 21.035156 10.632812 21.035156 11.144531 20.515625 L 20.007812 11.515625 C 20.519531 10.992188 20.519531 10.148438 20.007812 9.628906 "/>
</g>
</svg>
