<?xml version="1.0" encoding="UTF-8"?>
<svg xmlns="http://www.w3.org/2000/svg" xmlns:xlink="http://www.w3.org/1999/xlink" width="50px" height="px" viewBox="0 0 50 50" version="1.1">
<g id="surface1">
<path style=" stroke:none;fill-rule:nonzero;fill:rgb(0%,0%,0%);fill-opacity:1;" d="M 10.585938 0 L 12.832031 0 L 12.832031 2.226562 L 14.902344 2.226562 L 14.902344 0 L 17.148438 0 L 17.148438 6.738281 L 14.902344 6.738281 L 14.902344 4.492188 L 12.851562 4.492188 L 12.851562 6.738281 L 10.585938 6.738281 M 20.117188 2.246094 L 18.132812 2.246094 L 18.132812 0 L 24.355469 0 L 24.355469 2.246094 L 22.363281 2.246094 L 22.363281 6.738281 L 20.117188 6.738281 M 25.34375 0 L 27.695312 0 L 29.140625 2.375 L 30.585938 0 L 32.9375 0 L 32.9375 6.738281 L 30.695312 6.738281 L 30.695312 3.398438 L 29.121094 5.820312 L 27.546875 3.398438 L 27.546875 6.738281 L 25.339844 6.738281 M 34.054688 0 L 36.296875 0 L 36.296875 4.511719 L 39.484375 4.511719 L 39.484375 6.738281 L 34.054688 6.738281 "/>
<path style=" stroke:none;fill-rule:nonzero;fill:rgb(89.411765%,30.196078%,14.901961%);fill-opacity:1;" d="M 10.507812 45.996094 L 7.285156 9.824219 L 42.714844 9.824219 L 39.492188 45.976562 L 24.96875 50 "/>
<path style=" stroke:none;fill-rule:nonzero;fill:rgb(94.509804%,39.607843%,16.078431%);fill-opacity:1;" d="M 25 46.921875 L 25 12.792969 L 39.484375 12.792969 L 36.71875 43.652344 "/>
<path style=" stroke:none;fill-rule:nonzero;fill:rgb(92.156863%,92.156863%,92.156863%);fill-opacity:1;" d="M 13.867188 17.21875 L 25 17.21875 L 25 21.648438 L 18.730469 21.648438 L 19.140625 26.191406 L 25 26.191406 L 25 30.617188 L 15.078125 30.617188 M 15.273438 32.84375 L 19.726562 32.84375 L 20.039062 36.386719 L 25 37.714844 L 25 42.34375 L 15.898438 39.804688 "/>
<path style=" stroke:none;fill-rule:nonzero;fill:rgb(100%,100%,100%);fill-opacity:1;" d="M 36.09375 17.21875 L 24.980469 17.21875 L 24.980469 21.648438 L 35.683594 21.648438 M 35.28125 26.191406 L 24.980469 26.191406 L 24.980469 30.625 L 30.449219 30.625 L 29.929688 36.386719 L 24.980469 37.714844 L 24.980469 42.324219 L 34.0625 39.804688 "/>
</g>
</svg>
