<?xml version="1.0" encoding="UTF-8"?>
<svg xmlns="http://www.w3.org/2000/svg" xmlns:xlink="http://www.w3.org/1999/xlink" width="50px" height="px" viewBox="0 0 50 54" version="1.1">
<defs>
<filter id="alpha" filterUnits="objectBoundingBox" x="0%" y="0%" width="100%" height="100%">
  <feColorMatrix type="matrix" in="SourceGraphic" values="0 0 0 0 1 0 0 0 0 1 0 0 0 0 1 0 0 0 1 0"/>
</filter>
<mask id="mask0">
  <g filter="url(#alpha)">
<rect x="0" y="0" width="50" height="54" style="fill:rgb(0%,0%,0%);fill-opacity:0.85098;stroke:none;"/>
  </g>
</mask>
<clipPath id="clip1">
  <rect x="0" y="0" width="50" height="54"/>
</clipPath>
<g id="surface5" clip-path="url(#clip1)">
<path style=" stroke:none;fill-rule:nonzero;fill:rgb(6.27451%,6.27451%,6.27451%);fill-opacity:1;" d="M 37.46875 0.0195312 C 38.070312 0.0117188 38.671875 0.00390625 39.277344 0 C 39.285156 0.332031 39.296875 0.996094 39.304688 1.328125 C 38.691406 1.328125 38.074219 1.324219 37.460938 1.324219 C 37.460938 1 37.46875 0.351562 37.46875 0.0195312 Z M 37.46875 0.0195312 "/>
</g>
</defs>
<g id="surface1">
<use xlink:href="#surface5" mask="url(#mask0)"/>
<path style=" stroke:none;fill-rule:nonzero;fill:rgb(7.45098%,7.45098%,7.45098%);fill-opacity:1;" d="M 0.898438 0.292969 C 2 0.304688 3.105469 0.308594 4.210938 0.3125 C 4.117188 2.277344 4.503906 4.320312 3.945312 6.234375 C 3.226562 7.609375 1.4375 7.339844 0.148438 7.363281 C 0.0976562 6.929688 0.046875 6.492188 0 6.058594 C 0.742188 6 1.546875 6.144531 2.226562 5.761719 C 2.667969 4.398438 2.46875 2.945312 2.359375 1.542969 C 1.980469 1.550781 1.234375 1.558594 0.855469 1.5625 C 0.867188 1.246094 0.886719 0.609375 0.898438 0.292969 Z M 0.898438 0.292969 "/>
<path style=" stroke:none;fill-rule:nonzero;fill:rgb(7.45098%,7.45098%,7.45098%);fill-opacity:1;" d="M 22.941406 0.832031 C 24.238281 -0.167969 25.941406 0.242188 27.382812 0.632812 C 27.378906 1.011719 27.375 1.773438 27.375 2.152344 C 26.257812 1.703125 24.136719 0.726562 23.851562 2.570312 C 24.910156 2.890625 26.027344 3.082031 26.984375 3.652344 C 28.003906 4.480469 27.71875 6.367188 26.546875 6.933594 C 25.210938 7.722656 23.625 7.292969 22.21875 7.007812 C 22.136719 6.421875 22.054688 5.839844 21.980469 5.253906 C 23.167969 5.777344 25.570312 7.011719 25.925781 5.015625 C 24.734375 4.566406 23.253906 4.503906 22.390625 3.476562 C 22.007812 2.605469 22.070312 1.394531 22.941406 0.832031 Z M 22.941406 0.832031 "/>
<path style=" stroke:none;fill-rule:nonzero;fill:rgb(7.45098%,7.45098%,7.45098%);fill-opacity:1;" d="M 46.609375 0.539062 C 47.109375 0.539062 47.617188 0.539062 48.125 0.539062 C 48.136719 1.019531 48.15625 1.503906 48.175781 1.988281 C 48.5625 1.992188 49.335938 2 49.726562 2.003906 C 49.734375 2.296875 49.746094 2.882812 49.757812 3.175781 C 49.363281 3.171875 48.574219 3.160156 48.179688 3.152344 C 48.203125 4.132812 47.949219 5.199219 48.441406 6.101562 C 48.808594 6.140625 49.546875 6.210938 49.914062 6.25 C 49.875 8.046875 47.820312 7.234375 46.734375 6.949219 C 46.636719 5.851562 46.589844 4.753906 46.589844 3.652344 C 46.308594 3.265625 46.03125 2.871094 45.757812 2.480469 C 45.96875 2.289062 46.386719 1.90625 46.597656 1.714844 C 46.601562 1.417969 46.605469 0.828125 46.609375 0.539062 Z M 46.609375 0.539062 "/>
<path style=" stroke:none;fill-rule:nonzero;fill:rgb(7.45098%,7.45098%,7.45098%);fill-opacity:1;" d="M 5.546875 2.042969 C 6.945312 1.96875 8.894531 1.453125 9.773438 2.890625 C 10.085938 4.320312 9.890625 5.800781 9.9375 7.253906 C 9.3125 7.199219 8.6875 7.140625 8.066406 7.082031 C 7.355469 7.144531 6.519531 7.667969 5.863281 7.199219 C 4.777344 6.675781 4.761719 4.753906 5.902344 4.289062 C 6.734375 3.949219 7.640625 3.886719 8.511719 3.683594 C 7.683594 2.828125 6.511719 3.152344 5.472656 3.265625 C 5.492188 2.957031 5.53125 2.34375 5.546875 2.042969 M 6.910156 4.976562 C 6.863281 5.390625 6.820312 5.804688 6.78125 6.222656 C 7.257812 6.199219 7.730469 6.175781 8.210938 6.152344 C 8.246094 5.703125 8.285156 5.253906 8.320312 4.804688 C 7.847656 4.863281 7.375 4.921875 6.910156 4.976562 Z M 6.910156 4.976562 "/>
<path style=" stroke:none;fill-rule:nonzero;fill:rgb(7.45098%,7.45098%,7.45098%);fill-opacity:1;" d="M 10.574219 1.890625 C 10.984375 1.972656 11.8125 2.136719 12.222656 2.21875 C 12.652344 3.207031 12.949219 4.25 13.367188 5.25 C 13.71875 4.183594 14.046875 3.101562 14.363281 2.019531 C 14.773438 2.011719 15.597656 2 16.011719 1.992188 C 15.429688 3.824219 14.777344 5.636719 14.050781 7.421875 C 13.484375 7.347656 12.929688 7.226562 12.390625 7.070312 C 11.609375 5.414062 11.097656 3.644531 10.574219 1.890625 Z M 10.574219 1.890625 "/>
<path style=" stroke:none;fill-rule:nonzero;fill:rgb(7.45098%,7.45098%,7.45098%);fill-opacity:1;" d="M 16.542969 3.253906 C 16.660156 2.847656 16.796875 2.445312 16.949219 2.046875 C 18.273438 1.855469 20.074219 1.570312 20.984375 2.8125 C 21.296875 4.289062 21.105469 5.820312 21.132812 7.316406 C 20.503906 7.234375 19.878906 7.148438 19.253906 7.0625 C 18.132812 7.65625 16.261719 7.441406 16.289062 5.867188 C 16.074219 3.996094 18.417969 3.96875 19.6875 3.722656 C 18.921875 2.695312 17.59375 3.238281 16.542969 3.253906 M 18.089844 5.015625 C 18.042969 5.398438 18 5.789062 17.957031 6.171875 C 18.429688 6.1875 18.898438 6.199219 19.375 6.207031 C 19.417969 5.734375 19.460938 5.261719 19.503906 4.789062 C 19.03125 4.863281 18.5625 4.9375 18.089844 5.015625 Z M 18.089844 5.015625 "/>
<path style=" stroke:none;fill-rule:nonzero;fill:rgb(7.45098%,7.45098%,7.45098%);fill-opacity:1;" d="M 27.992188 4.652344 C 27.859375 2.328125 30.820312 1.109375 32.59375 2.351562 C 32.636719 2.679688 32.71875 3.339844 32.757812 3.667969 C 31.945312 3.414062 31.109375 2.832031 30.234375 3.226562 C 29.3125 4.105469 29.503906 6.339844 31.070312 6.207031 C 31.503906 6.070312 32.363281 5.796875 32.796875 5.660156 C 32.71875 6.027344 32.570312 6.761719 32.496094 7.125 C 30.640625 7.996094 27.847656 6.96875 27.992188 4.652344 Z M 27.992188 4.652344 "/>
<path style=" stroke:none;fill-rule:nonzero;fill:rgb(7.45098%,7.45098%,7.45098%);fill-opacity:1;" d="M 33.46875 1.875 C 34.109375 2.046875 34.765625 2.21875 35.410156 2.402344 C 35.894531 2.226562 36.382812 2.054688 36.875 1.878906 C 36.894531 2.289062 36.949219 3.109375 36.972656 3.519531 C 36.355469 3.550781 35.742188 3.578125 35.132812 3.609375 C 35.089844 4.835938 35.078125 6.058594 35.070312 7.285156 C 34.667969 7.289062 33.855469 7.292969 33.453125 7.296875 C 33.433594 5.488281 33.429688 3.683594 33.46875 1.875 Z M 33.46875 1.875 "/>
<path style=" stroke:none;fill-rule:nonzero;fill:rgb(7.45098%,7.45098%,7.45098%);fill-opacity:1;" d="M 40.429688 1.992188 C 41.609375 2.253906 42.800781 2.175781 43.976562 1.941406 C 45.820312 2.320312 45.863281 4.929688 45.164062 6.296875 C 44.582031 7.476562 43.15625 7.363281 42.054688 7.304688 C 42.0625 7.929688 42.070312 8.546875 42.082031 9.171875 C 41.667969 9.167969 40.839844 9.160156 40.421875 9.152344 C 40.421875 6.765625 40.417969 4.378906 40.429688 1.992188 M 42.097656 3.246094 C 42.082031 4.242188 42.070312 5.242188 42.082031 6.238281 C 42.609375 6.09375 43.296875 6.195312 43.699219 5.738281 C 44 4.925781 43.761719 4.050781 43.703125 3.210938 C 43.167969 3.222656 42.632812 3.234375 42.097656 3.246094 Z M 42.097656 3.246094 "/>
<path style=" stroke:none;fill-rule:nonzero;fill:rgb(7.45098%,7.45098%,7.45098%);fill-opacity:1;" d="M 37.625 2.003906 C 38.003906 2.003906 38.765625 2.003906 39.144531 2.003906 C 39.167969 3.769531 39.167969 5.527344 39.144531 7.292969 C 38.761719 7.292969 38.003906 7.292969 37.625 7.292969 C 37.59375 5.53125 37.59375 3.769531 37.625 2.003906 Z M 37.625 2.003906 "/>
<path style=" stroke:none;fill-rule:nonzero;fill:rgb(83.921569%,72.941176%,19.607843%);fill-opacity:1;" d="M 5.859375 10.722656 C 10.128906 10.542969 14.40625 10.773438 18.675781 10.703125 C 23.390625 10.550781 28.097656 10.675781 32.816406 10.691406 C 36.558594 10.703125 40.300781 10.675781 44.042969 10.707031 C 42.863281 23.664062 41.679688 36.621094 40.585938 49.585938 C 35.574219 51.007812 30.554688 52.410156 25.542969 53.824219 C 24.902344 54.089844 24.242188 53.84375 23.625 53.675781 C 18.859375 52.308594 14.097656 50.953125 9.324219 49.636719 C 8.082031 36.675781 6.914062 23.703125 5.859375 10.722656 M 25.03125 14.101562 C 24.855469 20.492188 25.003906 26.882812 24.953125 33.277344 C 25 39.121094 24.867188 44.96875 25.019531 50.8125 C 29.234375 49.820312 33.390625 48.605469 37.546875 47.402344 C 38.589844 36.308594 39.609375 25.214844 40.484375 14.105469 C 35.332031 14.054688 30.179688 14.113281 25.03125 14.101562 M 19.671875 39.058594 C 17.195312 38.386719 14.75 37.609375 12.242188 37.074219 C 12.171875 38.558594 12.195312 40.046875 12.367188 41.523438 C 16.039062 42.417969 19.636719 43.59375 23.3125 44.46875 C 23.339844 36.003906 23.300781 27.539062 23.332031 19.074219 C 22.132812 19.046875 20.933594 19.027344 19.734375 19.003906 C 19.597656 25.683594 19.726562 32.375 19.671875 39.058594 Z M 19.671875 39.058594 "/>
<path style=" stroke:none;fill-rule:nonzero;fill:rgb(100%,85.490196%,24.313725%);fill-opacity:1;" d="M 25.03125 14.101562 C 30.179688 14.113281 35.332031 14.054688 40.484375 14.105469 C 39.609375 25.214844 38.589844 36.308594 37.546875 47.402344 C 33.390625 48.605469 29.234375 49.820312 25.019531 50.8125 C 24.867188 44.96875 25 39.121094 24.953125 33.277344 C 25.003906 26.882812 24.855469 20.492188 25.03125 14.101562 M 26.472656 19.070312 C 26.488281 24.574219 26.492188 30.082031 26.472656 35.582031 C 28.988281 35.175781 31.5 34.710938 34.007812 34.253906 C 33.96875 35.535156 33.917969 36.816406 33.859375 38.097656 C 31.417969 38.75 28.976562 39.417969 26.519531 40.023438 C 26.480469 41.5 26.476562 42.976562 26.488281 44.460938 C 29.585938 43.769531 32.632812 42.898438 35.707031 42.125 C 36.089844 41.945312 36.832031 41.964844 36.796875 41.363281 C 37.171875 37.40625 37.402344 33.433594 37.761719 29.46875 C 35.214844 29.679688 32.691406 30.105469 30.144531 30.28125 C 30.125 28.035156 30.121094 25.785156 30.152344 23.539062 C 32.832031 23.539062 35.507812 23.539062 38.1875 23.542969 C 38.359375 22.042969 38.511719 20.539062 38.625 19.035156 C 34.578125 19.054688 30.523438 19 26.472656 19.070312 Z M 26.472656 19.070312 "/>
<path style=" stroke:none;fill-rule:nonzero;fill:rgb(92.156863%,92.156863%,92.156863%);fill-opacity:1;" d="M 19.671875 39.058594 C 19.726562 32.375 19.597656 25.683594 19.734375 19.003906 C 20.933594 19.027344 22.132812 19.046875 23.332031 19.074219 C 23.300781 27.539062 23.339844 36.003906 23.3125 44.46875 C 19.636719 43.59375 16.039062 42.417969 12.367188 41.523438 C 12.195312 40.046875 12.171875 38.558594 12.242188 37.074219 C 14.75 37.609375 17.195312 38.386719 19.671875 39.058594 Z M 19.671875 39.058594 "/>
</g>
</svg>
