<?xml version="1.0" encoding="UTF-8"?>
<svg xmlns="http://www.w3.org/2000/svg" xmlns:xlink="http://www.w3.org/1999/xlink" width="50px" height="px" viewBox="0 0 50 50" version="1.1">
<g id="surface1">
<rect x="0" y="0" width="50" height="50" style="fill:rgb(100%,100%,100%);fill-opacity:1;stroke:none;"/>
<path style=" stroke:none;fill-rule:evenodd;fill:rgb(0%,0%,0%);fill-opacity:1;" d="M 13.128906 26.410156 L 13.449219 26.480469 L 12.332031 30.027344 L 2.207031 30.027344 L 2.207031 29.671875 L 2.699219 29.671875 C 3.253906 29.671875 3.648438 29.492188 3.882812 29.132812 C 4.019531 28.925781 4.085938 28.445312 4.085938 27.703125 L 4.085938 19.261719 C 4.085938 18.449219 3.996094 17.9375 3.816406 17.734375 C 3.566406 17.449219 3.191406 17.308594 2.699219 17.308594 L 2.207031 17.308594 L 2.207031 16.949219 L 8.128906 16.949219 L 8.128906 17.308594 C 7.433594 17.300781 6.945312 17.363281 6.664062 17.5 C 6.386719 17.632812 6.195312 17.804688 6.09375 18.011719 C 5.992188 18.214844 5.9375 18.710938 5.9375 19.488281 L 5.9375 27.703125 C 5.9375 28.234375 5.992188 28.601562 6.09375 28.800781 C 6.167969 28.9375 6.289062 29.035156 6.449219 29.101562 C 6.609375 29.164062 7.109375 29.195312 7.953125 29.195312 L 8.90625 29.195312 C 9.910156 29.195312 10.613281 29.125 11.019531 28.976562 C 11.425781 28.828125 11.792969 28.5625 12.128906 28.191406 C 12.460938 27.816406 12.796875 27.21875 13.128906 26.410156 Z M 13.128906 26.410156 "/>
<path style=" stroke:none;fill-rule:evenodd;fill:rgb(0%,0%,0%);fill-opacity:1;" d="M 14.691406 23.953125 L 10.75 23.953125 L 10.058594 25.5625 C 9.886719 25.957031 9.804688 26.25 9.804688 26.445312 C 9.804688 26.601562 9.878906 26.738281 10.023438 26.855469 C 10.171875 26.972656 10.488281 27.050781 10.980469 27.085938 L 10.980469 27.363281 L 7.777344 27.363281 L 7.777344 27.085938 C 8.203125 27.007812 8.476562 26.910156 8.601562 26.789062 C 8.859375 26.550781 9.140625 26.0625 9.449219 25.328125 L 13.03125 16.953125 L 13.292969 16.953125 L 16.835938 25.417969 C 17.121094 26.097656 17.378906 26.539062 17.613281 26.742188 C 17.847656 26.945312 18.171875 27.058594 18.585938 27.085938 L 18.585938 27.363281 L 14.570312 27.363281 L 14.570312 27.085938 C 14.972656 27.066406 15.25 26.996094 15.390625 26.878906 C 15.535156 26.765625 15.605469 26.625 15.605469 26.460938 C 15.605469 26.238281 15.503906 25.894531 15.304688 25.417969 Z M 14.480469 23.398438 L 12.753906 19.285156 L 10.980469 23.398438 Z M 14.480469 23.398438 "/>
<path style=" stroke:none;fill-rule:evenodd;fill:rgb(0%,0%,0%);fill-opacity:1;" d="M 27.101562 16.863281 L 27.246094 19.953125 L 26.875 19.953125 C 26.804688 19.410156 26.710938 19.023438 26.582031 18.789062 C 26.382812 18.414062 26.117188 18.136719 25.785156 17.957031 C 25.449219 17.777344 25.011719 17.6875 24.46875 17.6875 L 22.609375 17.6875 L 22.609375 27.761719 C 22.609375 28.570312 22.699219 29.074219 22.871094 29.277344 C 23.117188 29.550781 23.5 29.6875 24.007812 29.6875 L 24.46875 29.6875 L 24.46875 30.042969 L 18.875 30.042969 L 18.875 29.6875 L 19.34375 29.6875 C 19.902344 29.6875 20.296875 29.515625 20.527344 29.179688 C 20.671875 28.972656 20.746094 28.5 20.746094 27.761719 L 20.746094 17.6875 L 19.160156 17.6875 C 18.546875 17.6875 18.105469 17.734375 17.847656 17.824219 C 17.511719 17.949219 17.222656 18.1875 16.980469 18.535156 C 16.742188 18.886719 16.601562 19.359375 16.554688 19.953125 L 16.1875 19.953125 L 16.34375 16.863281 Z M 27.101562 16.863281 "/>
<path style=" stroke:none;fill-rule:evenodd;fill:rgb(0%,0%,0%);fill-opacity:1;" d="M 28.699219 21.1875 L 28.699219 26.179688 L 31.480469 26.179688 C 32.203125 26.179688 32.683594 26.074219 32.921875 25.855469 C 33.246094 25.570312 33.425781 25.066406 33.464844 24.34375 L 33.808594 24.34375 L 33.808594 28.746094 L 33.464844 28.746094 C 33.378906 28.132812 33.289062 27.738281 33.203125 27.5625 C 33.09375 27.347656 32.90625 27.175781 32.652344 27.050781 C 32.398438 26.925781 32.007812 26.863281 31.480469 26.863281 L 28.699219 26.863281 L 28.699219 31.03125 C 28.699219 31.589844 28.726562 31.929688 28.773438 32.050781 C 28.824219 32.171875 28.910156 32.269531 29.035156 32.339844 C 29.160156 32.410156 29.398438 32.445312 29.746094 32.445312 L 31.890625 32.445312 C 32.601562 32.445312 33.125 32.398438 33.445312 32.296875 C 33.769531 32.199219 34.078125 32.003906 34.378906 31.710938 C 34.761719 31.328125 35.15625 30.742188 35.5625 29.96875 L 35.933594 29.96875 L 34.84375 33.136719 L 25.101562 33.136719 L 25.101562 32.792969 L 25.550781 32.792969 C 25.847656 32.792969 26.136719 32.71875 26.398438 32.578125 C 26.597656 32.476562 26.730469 32.328125 26.804688 32.132812 C 26.875 31.929688 26.910156 31.523438 26.910156 30.910156 L 26.910156 22.699219 C 26.910156 21.894531 26.832031 21.402344 26.667969 21.214844 C 26.445312 20.964844 26.074219 20.84375 25.550781 20.84375 L 25.101562 20.84375 L 25.101562 20.496094 L 34.84375 20.496094 L 34.984375 23.261719 L 34.621094 23.261719 C 34.488281 22.597656 34.347656 22.144531 34.1875 21.894531 C 34.027344 21.648438 33.796875 21.457031 33.484375 21.324219 C 33.234375 21.234375 32.796875 21.1875 32.167969 21.1875 Z M 28.699219 21.1875 "/>
<path style=" stroke:none;fill-rule:evenodd;fill:rgb(0%,0%,0%);fill-opacity:1;" d="M 41.820312 22.75 L 44.628906 26.9375 C 45.40625 28.097656 45.984375 28.828125 46.363281 29.136719 C 46.738281 29.441406 47.214844 29.609375 47.792969 29.640625 L 47.792969 29.996094 L 42.179688 29.996094 L 42.179688 29.640625 C 42.550781 29.636719 42.828125 29.597656 43.007812 29.523438 C 43.140625 29.46875 43.257812 29.375 43.339844 29.261719 C 43.425781 29.140625 43.46875 29.019531 43.46875 28.898438 C 43.46875 28.746094 43.4375 28.59375 43.382812 28.453125 C 43.335938 28.34375 43.160156 28.0625 42.851562 27.605469 L 40.632812 24.246094 L 37.890625 27.757812 C 37.601562 28.132812 37.429688 28.382812 37.371094 28.507812 C 37.3125 28.632812 37.28125 28.761719 37.28125 28.898438 C 37.28125 29.105469 37.371094 29.273438 37.542969 29.410156 C 37.71875 29.542969 38.050781 29.621094 38.539062 29.644531 L 38.539062 30 L 33.894531 30 L 33.894531 29.644531 C 34.226562 29.609375 34.507812 29.539062 34.746094 29.4375 C 35.152344 29.265625 35.535156 29.039062 35.882812 28.761719 C 36.246094 28.480469 36.65625 28.042969 37.117188 27.457031 L 40.207031 23.5625 L 37.632812 19.785156 C 36.929688 18.765625 36.335938 18.09375 35.847656 17.777344 C 35.355469 17.457031 34.792969 17.289062 34.15625 17.269531 L 34.15625 16.910156 L 40.207031 16.910156 L 40.207031 17.269531 C 39.695312 17.289062 39.339844 17.371094 39.152344 17.519531 C 38.960938 17.667969 38.867188 17.832031 38.867188 18.011719 C 38.867188 18.25 39.023438 18.597656 39.328125 19.054688 L 41.335938 22.054688 L 43.664062 19.113281 C 43.933594 18.765625 44.097656 18.527344 44.160156 18.398438 C 44.21875 18.269531 44.253906 18.136719 44.253906 18 C 44.253906 17.867188 44.214844 17.746094 44.132812 17.644531 C 44.042969 17.515625 43.917969 17.414062 43.769531 17.363281 C 43.621094 17.304688 43.3125 17.277344 42.851562 17.269531 L 42.851562 16.910156 L 47.492188 16.910156 L 47.492188 17.269531 C 47.128906 17.289062 46.828125 17.34375 46.59375 17.441406 C 46.25 17.589844 45.929688 17.789062 45.640625 18.039062 C 45.347656 18.289062 44.941406 18.753906 44.414062 19.429688 Z M 41.820312 22.75 "/>
</g>
</svg>
