<?xml version="1.0" encoding="UTF-8"?>
<svg xmlns="http://www.w3.org/2000/svg" xmlns:xlink="http://www.w3.org/1999/xlink" width="50px" height="px" viewBox="0 0 50 55" version="1.1">
<defs>
<linearGradient id="linear0" gradientUnits="userSpaceOnUse" x1="12914.6377" y1="-27007.6797" x2="12991.0264" y2="-27073.4023" gradientTransform="matrix(0.222507,0,0,-0.221012,-2867.77832,-5968.180555)">
<stop offset="0" style="stop-color:rgb(36.078431%,62.745098%,83.529412%);stop-opacity:1;"/>
<stop offset="1" style="stop-color:rgb(19.215686%,41.568627%,60%);stop-opacity:1;"/>
</linearGradient>
<linearGradient id="linear1" gradientUnits="userSpaceOnUse" x1="13020.6973" y1="-27113.1328" x2="12993.4189" y2="-27074.5391" gradientTransform="matrix(0.222507,0,0,-0.221012,-2867.77832,-5968.180555)">
<stop offset="0" style="stop-color:rgb(100%,83.137255%,24.313725%);stop-opacity:1;"/>
<stop offset="1" style="stop-color:rgb(100%,91.372549%,45.882353%);stop-opacity:1;"/>
</linearGradient>
<filter id="alpha" filterUnits="objectBoundingBox" x="0%" y="0%" width="100%" height="100%">
  <feColorMatrix type="matrix" in="SourceGraphic" values="0 0 0 0 1 0 0 0 0 1 0 0 0 0 1 0 0 0 1 0"/>
</filter>
<mask id="mask0">
  <g filter="url(#alpha)">
<rect x="0" y="0" width="50" height="55" style="fill:rgb(0%,0%,0%);fill-opacity:0.443137;stroke:none;"/>
  </g>
</mask>
<radialGradient id="radial0" gradientUnits="userSpaceOnUse" cx="-83039.6641" cy="-13866.3984" fx="-83039.6641" fy="-13866.3984" r="20.3396" gradientTransform="matrix(0,-0.0933463,-0.417207,0,-5763.089695,-7716.965083)">
<stop offset="0" style="stop-color:rgb(72.156863%,72.156863%,72.156863%);stop-opacity:0.498039;"/>
<stop offset="1" style="stop-color:rgb(49.803922%,50.196078%,50.196078%);stop-opacity:0;"/>
</radialGradient>
<clipPath id="clip1">
  <rect x="0" y="0" width="50" height="55"/>
</clipPath>
<g id="surface5" clip-path="url(#clip1)">
<path style=" stroke:none;fill-rule:nonzero;fill:url(#radial0);" d="M 32.039062 34.800781 C 32.039062 35.851562 27.570312 36.707031 22.070312 36.707031 C 16.570312 36.707031 12.101562 35.851562 12.101562 34.800781 C 12.101562 33.75 16.570312 32.894531 22.070312 32.894531 C 27.570312 32.894531 32.039062 33.75 32.039062 34.800781 Z M 32.039062 34.800781 "/>
</g>
</defs>
<g id="surface1">
<path style=" stroke:none;fill-rule:nonzero;fill:rgb(39.607843%,39.607843%,39.607843%);fill-opacity:1;" d="M 5.460938 47.019531 C 5.460938 44.839844 4.828125 43.75 3.558594 43.710938 C 3.046875 43.671875 2.570312 43.789062 2.097656 43.945312 C 1.699219 44.058594 1.464844 44.214844 1.34375 44.335938 L 1.34375 49.46875 C 2.132812 49.976562 2.847656 50.210938 3.480469 50.171875 C 4.785156 50.050781 5.460938 49.003906 5.460938 47.019531 Z M 7.003906 47.097656 C 7.003906 48.1875 6.765625 49.082031 6.210938 49.820312 C 5.617188 50.636719 4.828125 51.066406 3.757812 51.066406 C 2.96875 51.105469 2.179688 50.832031 1.347656 50.328125 L 1.347656 54.996094 L 0 54.527344 L 0 44.136719 C 0.238281 43.867188 0.515625 43.632812 0.832031 43.4375 C 1.621094 42.972656 2.613281 42.738281 3.71875 42.738281 C 4.746094 42.738281 5.578125 43.167969 6.132812 43.984375 C 6.722656 44.878906 7.003906 45.851562 7.003906 47.097656 Z M 15.191406 50.171875 C 15.191406 51.648438 15.03125 52.660156 14.753906 53.207031 C 14.4375 53.75 13.882812 54.21875 13.054688 54.570312 C 12.339844 54.839844 11.628906 54.996094 10.835938 54.996094 L 10.597656 54.179688 C 11.429688 54.0625 11.984375 53.945312 12.300781 53.867188 C 12.933594 53.632812 13.410156 53.324219 13.644531 52.855469 C 13.839844 52.503906 13.921875 51.804688 13.921875 50.792969 L 13.921875 50.441406 C 13.011719 50.871094 12.023438 51.0625 11.035156 51.0625 C 10.359375 51.0625 9.765625 50.871094 9.292969 50.441406 C 8.742188 50.015625 8.460938 49.429688 8.460938 48.730469 L 8.460938 43.246094 L 9.804688 42.777344 L 9.804688 48.304688 C 9.804688 48.890625 10.003906 49.355469 10.398438 49.667969 C 10.796875 49.980469 11.269531 50.132812 11.902344 50.132812 C 12.535156 50.132812 13.167969 49.898438 13.878906 49.433594 L 13.878906 42.96875 L 15.222656 42.96875 Z M 20.410156 51.027344 L 19.976562 51.027344 C 19.222656 51.027344 18.632812 50.832031 18.195312 50.484375 C 17.757812 50.132812 17.5625 49.625 17.5625 49.003906 L 17.5625 43.789062 L 16.652344 43.789062 L 16.652344 42.96875 L 17.5625 42.96875 L 17.5625 40.753906 L 18.90625 40.285156 L 18.90625 42.96875 L 20.410156 42.96875 L 20.410156 43.789062 L 18.90625 43.789062 L 18.90625 48.925781 C 18.90625 49.429688 19.023438 49.78125 19.304688 49.972656 C 19.539062 50.128906 19.898438 50.246094 20.410156 50.285156 Z M 28.558594 50.90625 L 27.214844 50.90625 L 27.214844 45.808594 C 27.214844 45.304688 27.097656 44.839844 26.859375 44.488281 C 26.585938 44.058594 26.1875 43.867188 25.671875 43.867188 C 25.039062 43.867188 24.289062 44.179688 23.378906 44.839844 L 23.378906 50.949219 L 22.035156 50.949219 L 22.035156 38.769531 L 23.378906 38.339844 L 23.378906 43.867188 C 24.25 43.246094 25.160156 42.933594 26.1875 42.933594 C 26.898438 42.933594 27.453125 43.167969 27.929688 43.632812 C 28.363281 44.097656 28.601562 44.683594 28.601562 45.382812 Z M 35.679688 46.785156 C 35.679688 45.964844 35.523438 45.265625 35.207031 44.722656 C 34.808594 44.058594 34.257812 43.710938 33.425781 43.671875 C 31.960938 43.75 31.210938 44.800781 31.210938 46.785156 C 31.210938 47.71875 31.367188 48.457031 31.683594 49.082031 C 32.078125 49.859375 32.671875 50.25 33.464844 50.25 C 34.929688 50.207031 35.679688 49.082031 35.679688 46.785156 Z M 37.144531 46.785156 C 37.144531 47.953125 36.828125 48.964844 36.234375 49.742188 C 35.5625 50.597656 34.613281 51.0625 33.464844 51.0625 C 32.277344 51.0625 31.371094 50.636719 30.695312 49.742188 C 30.101562 48.964844 29.789062 47.988281 29.789062 46.785156 C 29.789062 45.65625 30.105469 44.722656 30.777344 43.980469 C 31.488281 43.164062 32.359375 42.777344 33.464844 42.777344 C 34.574219 42.777344 35.484375 43.167969 36.195312 43.980469 C 36.828125 44.761719 37.144531 45.695312 37.144531 46.785156 Z M 44.859375 50.90625 L 43.515625 50.90625 L 43.515625 45.539062 C 43.515625 44.953125 43.316406 44.488281 42.960938 44.175781 C 42.605469 43.863281 42.128906 43.671875 41.496094 43.710938 C 40.867188 43.710938 40.230469 43.945312 39.679688 44.332031 L 39.679688 50.984375 L 38.335938 50.984375 L 38.335938 44.175781 C 39.085938 43.632812 39.796875 43.242188 40.472656 43.085938 C 41.101562 42.929688 41.617188 42.851562 42.09375 42.851562 C 42.410156 42.851562 42.726562 42.890625 43.003906 42.929688 C 43.515625 43.046875 43.953125 43.28125 44.269531 43.59375 C 44.625 43.941406 44.820312 44.410156 44.820312 44.914062 Z M 44.859375 50.90625 "/>
<path style=" stroke:none;fill-rule:nonzero;fill:url(#linear0);" d="M 21.835938 0.0117188 C 20.570312 0.0117188 19.34375 0.128906 18.277344 0.324219 C 15.113281 0.867188 14.558594 2 14.558594 4.140625 L 14.558594 6.941406 L 21.996094 6.941406 L 21.996094 7.875 L 11.789062 7.875 C 9.652344 7.875 7.753906 9.160156 7.160156 11.570312 C 6.488281 14.375 6.449219 16.085938 7.160156 19.003906 C 7.675781 21.183594 8.941406 22.699219 11.117188 22.699219 L 13.691406 22.699219 L 13.691406 19.351562 C 13.691406 16.941406 15.828125 14.800781 18.316406 14.800781 L 25.714844 14.800781 C 27.773438 14.800781 29.433594 13.125 29.433594 11.066406 L 29.433594 4.097656 C 29.433594 2.113281 27.730469 0.636719 25.714844 0.285156 C 24.40625 0.0898438 23.101562 -0.0234375 21.835938 0.0117188 Z M 17.800781 2.230469 C 18.554688 2.230469 19.183594 2.851562 19.183594 3.628906 C 19.183594 4.410156 18.554688 5.03125 17.800781 5.03125 C 17.046875 5.03125 16.414062 4.410156 16.414062 3.628906 C 16.414062 2.851562 17.007812 2.230469 17.800781 2.230469 Z M 17.800781 2.230469 "/>
<path style=" stroke:none;fill-rule:nonzero;fill:url(#linear1);" d="M 30.339844 7.792969 L 30.339844 11.023438 C 30.339844 13.554688 28.164062 15.65625 25.671875 15.65625 L 18.277344 15.65625 C 16.257812 15.65625 14.558594 17.367188 14.558594 19.390625 L 14.558594 26.355469 C 14.558594 28.339844 16.296875 29.507812 18.277344 30.09375 C 20.609375 30.792969 22.867188 30.910156 25.714844 30.09375 C 27.570312 29.550781 29.433594 28.496094 29.433594 26.355469 L 29.433594 23.554688 L 21.992188 23.554688 L 21.992188 22.621094 L 33.148438 22.621094 C 35.285156 22.621094 36.117188 21.144531 36.867188 18.925781 C 37.660156 16.628906 37.621094 14.449219 36.867188 11.492188 C 36.351562 9.390625 35.324219 7.796875 33.148438 7.796875 Z M 26.148438 25.421875 C 26.898438 25.421875 27.53125 26.042969 27.53125 26.824219 C 27.53125 27.601562 26.898438 28.222656 26.148438 28.222656 C 25.394531 28.222656 24.761719 27.601562 24.761719 26.824219 C 24.761719 26.042969 25.398438 25.421875 26.148438 25.421875 Z M 26.148438 25.421875 "/>
<path style=" stroke:none;fill-rule:nonzero;fill:rgb(39.607843%,39.607843%,39.607843%);fill-opacity:1;" d="M 47.429688 41.804688 L 47.664062 41.804688 L 47.664062 40.363281 L 48.21875 40.363281 L 48.21875 40.171875 L 46.875 40.171875 L 46.875 40.363281 L 47.429688 40.363281 Z M 48.457031 41.804688 L 48.652344 41.804688 L 48.652344 40.484375 L 49.089844 41.804688 L 49.328125 41.804688 L 49.761719 40.484375 L 49.761719 41.804688 L 50 41.804688 L 50 40.171875 L 49.722656 40.171875 L 49.210938 41.570312 L 48.773438 40.171875 L 48.457031 40.171875 Z M 48.457031 41.804688 "/>
<use xlink:href="#surface5" mask="url(#mask0)"/>
</g>
</svg>
