<?xml version="1.0" encoding="UTF-8"?>
<svg xmlns="http://www.w3.org/2000/svg" xmlns:xlink="http://www.w3.org/1999/xlink" width="50px" height="px" viewBox="0 0 50 50" version="1.1">
<g id="surface1">
<path style=" stroke:none;fill-rule:nonzero;fill:rgb(0.392157%,59.607843%,20%);fill-opacity:1;" d="M 25.054688 0.378906 L 0.378906 24.878906 L 25.054688 49.488281 L 49.617188 24.878906 L 25.054688 0.378906 "/>
<path style=" stroke:none;fill-rule:nonzero;fill:rgb(40%,99.607843%,59.607843%);fill-opacity:1;" d="M 25.050781 2.628906 L 25.050781 0.5625 L 0.542969 24.882812 L 2.640625 24.882812 L 25.050781 2.628906 "/>
<path style=" stroke:none;fill-rule:nonzero;fill:rgb(27.058824%,99.607843%,0.784314%);fill-opacity:1;" d="M 25.050781 2.628906 L 25.050781 0.5625 L 49.636719 24.882812 L 47.363281 24.882812 L 25.050781 2.628906 "/>
<path style=" stroke:none;fill-rule:nonzero;fill:rgb(0.392157%,49.019608%,9.019608%);fill-opacity:1;" d="M 25.050781 47.238281 L 25.050781 49.527344 L 0.542969 24.882812 L 2.640625 24.882812 L 25.050781 47.238281 "/>
<path style=" stroke:none;fill-rule:nonzero;fill:rgb(0%,36.470588%,1.568627%);fill-opacity:1;" d="M 25.050781 47.238281 L 25.050781 49.527344 L 49.636719 24.882812 L 47.363281 24.882812 L 25.050781 47.238281 "/>
<path style=" stroke:none;fill-rule:nonzero;fill:rgb(0%,0%,0%);fill-opacity:1;" d="M 12.738281 44.855469 L 7.988281 44.855469 L 6.132812 43.054688 L 6.132812 8.667969 L 4.660156 8.667969 L 3.398438 7.410156 L 3.398438 3.566406 L 4.707031 2.152344 L 21.320312 2.152344 L 22.816406 3.644531 L 22.816406 7.292969 L 21.574219 8.800781 L 20.320312 8.800781 L 20.320312 20.425781 L 32.132812 8.800781 L 31.472656 8.800781 L 30.097656 7.324219 L 30.097656 3.453125 L 31.449219 2.21875 L 48.222656 2.21875 L 49.546875 3.542969 L 49.546875 7.203125 L 12.738281 44.855469 "/>
<path style=" stroke:none;fill-rule:nonzero;fill:rgb(0%,0%,0%);fill-opacity:1;" d="M 25.050781 49.867188 L 0 24.882812 L 25.050781 0 L 50 24.882812 Z M 0.765625 24.882812 L 25.050781 49.101562 L 49.230469 24.882812 L 25.050781 0.765625 Z M 0.765625 24.882812 "/>
<path style=" stroke:none;fill-rule:nonzero;fill:rgb(99.607843%,99.607843%,99.607843%);fill-opacity:1;" d="M 21.109375 4.425781 L 21.847656 3.949219 L 21.09375 3.167969 L 5.109375 3.167969 L 4.296875 3.980469 L 4.296875 7.042969 L 5.195312 7.941406 L 5.625 7.042969 L 5.0625 6.480469 L 5.0625 4.320312 L 5.484375 3.945312 L 20.574219 3.960938 L 21.109375 4.425781 "/>
<path style=" stroke:none;fill-rule:nonzero;fill:rgb(99.607843%,99.607843%,99.607843%);fill-opacity:1;" d="M 8.097656 6.96875 L 8.097656 42.828125 L 8.601562 43.308594 L 8.199219 44.074219 L 7.132812 43.027344 L 7.132812 7.898438 L 8.097656 6.96875 "/>
<path style=" stroke:none;fill-rule:nonzero;fill:rgb(50.196078%,50.196078%,50.196078%);fill-opacity:1;" d="M 5.515625 6.96875 L 5.195312 7.941406 L 7.128906 7.941406 L 8.246094 6.96875 L 5.515625 6.96875 "/>
<path style=" stroke:none;fill-rule:nonzero;fill:rgb(99.607843%,99.607843%,99.607843%);fill-opacity:1;" d="M 32.527344 6.984375 L 31.851562 6.507812 L 31.851562 4.582031 L 32.554688 3.878906 L 47.292969 3.878906 L 47.859375 4.628906 L 48.660156 3.996094 L 47.835938 3.246094 L 31.992188 3.246094 L 31.203125 4.03125 L 31.203125 7.117188 L 32.035156 7.867188 M 19.21875 22.710938 L 17.679688 26.4375 L 35.050781 9.0625 L 34.96875 6.960938 L 19.21875 22.710938 "/>
<path style=" stroke:none;fill-rule:nonzero;fill:rgb(50.196078%,50.196078%,50.196078%);fill-opacity:1;" d="M 21.074219 4.410156 L 21.847656 3.949219 L 21.847656 6.96875 L 20.964844 7.851562 L 19.25 7.851562 L 19.21875 22.710938 L 17.683594 26.425781 L 17.683594 6.96875 L 20.546875 6.96875 L 21.082031 6.539062 L 21.074219 4.410156 M 47.804688 4.421875 L 48.660156 3.996094 L 48.660156 6.757812 L 12.1875 44.074219 L 8.199219 44.074219 L 8.585938 43.339844 L 11.652344 43.339844 L 47.8125 6.105469 L 47.804688 4.421875 M 34.96875 6.960938 L 34.078125 7.847656 L 32.035156 7.867188 L 32.53125 6.972656 L 34.964844 6.960938 "/>
<path style=" stroke:none;fill-rule:nonzero;fill:rgb(80%,80%,80%);fill-opacity:1;" d="M 32.417969 3.851562 L 31.851562 4.414062 L 31.851562 6.480469 L 32.347656 6.972656 L 34.957031 6.972656 L 34.957031 8.96875 L 17.679688 26.433594 L 17.679688 6.996094 L 20.550781 6.996094 L 21.140625 6.410156 L 21.140625 4.316406 L 20.597656 3.898438 L 5.488281 3.898438 L 4.992188 4.390625 L 4.992188 6.527344 L 5.496094 7.03125 L 8.125 7.03125 L 8.125 42.824219 L 8.617188 43.316406 L 11.605469 43.316406 L 47.8125 6.054688 L 47.8125 4.414062 L 47.246094 3.851562 L 32.417969 3.851562 "/>
<path style=" stroke:none;fill-rule:nonzero;fill:rgb(50.196078%,50.196078%,50.196078%);fill-opacity:1;" d="M 11.625 43.363281 L 8.597656 43.363281 L 8.074219 42.84375 L 8.074219 7.078125 L 5.476562 7.078125 L 4.945312 6.546875 L 4.945312 4.371094 L 5.46875 3.851562 L 20.613281 3.851562 L 21.1875 4.292969 L 21.1875 6.429688 L 20.570312 7.042969 L 17.726562 7.042969 L 17.726562 26.320312 L 34.910156 8.949219 L 34.910156 7.019531 L 32.328125 7.019531 L 31.804688 6.5 L 31.804688 4.394531 L 32.398438 3.800781 L 47.265625 3.800781 L 47.859375 4.394531 L 47.859375 6.074219 L 47.84375 6.089844 Z M 8.636719 43.269531 L 11.585938 43.269531 L 47.765625 6.035156 L 47.765625 4.433594 L 47.226562 3.898438 L 32.4375 3.898438 L 31.898438 4.433594 L 31.898438 6.460938 L 32.367188 6.925781 L 35.007812 6.925781 L 35.007812 8.988281 L 34.992188 9.003906 L 17.632812 26.550781 L 17.632812 6.949219 L 20.53125 6.949219 L 21.09375 6.390625 L 21.09375 4.339844 L 20.582031 3.945312 L 5.507812 3.945312 L 5.039062 4.410156 L 5.039062 6.507812 L 5.515625 6.980469 L 8.171875 6.980469 L 8.171875 42.804688 Z M 8.636719 43.269531 "/>
<path style=" stroke:none;fill-rule:nonzero;fill:rgb(80%,80%,80%);fill-opacity:1;" d="M 26.28125 27.976562 C 26.253906 27.984375 26.230469 27.996094 26.207031 28.015625 L 25.507812 28.613281 C 25.488281 28.632812 25.472656 28.65625 25.460938 28.683594 L 24.761719 30.640625 C 24.742188 30.699219 24.753906 30.765625 24.800781 30.808594 L 25.335938 31.34375 C 25.367188 31.371094 25.40625 31.386719 25.449219 31.386719 L 27.613281 31.386719 C 27.65625 31.386719 27.699219 31.371094 27.726562 31.34375 L 28.292969 30.773438 C 28.3125 30.753906 28.328125 30.730469 28.335938 30.707031 L 28.9375 28.648438 C 28.953125 28.589844 28.9375 28.527344 28.894531 28.488281 L 28.429688 28.023438 C 28.398438 27.992188 28.355469 27.976562 28.3125 27.976562 L 26.316406 27.976562 C 26.304688 27.976562 26.292969 27.976562 26.28125 27.976562 Z M 22.320312 33.492188 C 22.257812 33.503906 22.210938 33.550781 22.195312 33.609375 L 21.929688 34.671875 C 21.917969 34.71875 21.925781 34.769531 21.957031 34.808594 C 21.988281 34.847656 22.035156 34.871094 22.085938 34.871094 L 23.359375 34.871094 L 20.203125 43.855469 C 20.183594 43.90625 20.191406 43.960938 20.222656 44.003906 C 20.253906 44.042969 20.300781 44.070312 20.355469 44.070312 L 24.949219 44.070312 C 25.019531 44.070312 25.082031 44.027344 25.105469 43.960938 L 25.40625 42.992188 C 25.421875 42.945312 25.410156 42.890625 25.378906 42.851562 C 25.347656 42.808594 25.300781 42.785156 25.25 42.785156 L 24.210938 42.785156 L 27.332031 33.703125 C 27.351562 33.65625 27.339844 33.601562 27.3125 33.558594 C 27.28125 33.515625 27.234375 33.492188 27.179688 33.492188 L 22.351562 33.492188 C 22.339844 33.488281 22.332031 33.488281 22.320312 33.492188 Z M 36.9375 33.523438 C 36.898438 33.53125 36.867188 33.550781 36.84375 33.578125 L 35.890625 34.652344 L 34.367188 34.652344 L 33.355469 33.605469 C 33.324219 33.574219 33.285156 33.558594 33.242188 33.554688 L 29.609375 33.554688 C 29.542969 33.558594 29.480469 33.597656 29.457031 33.664062 L 29.125 34.65625 C 29.109375 34.707031 29.117188 34.761719 29.148438 34.804688 C 29.175781 34.84375 29.226562 34.871094 29.277344 34.871094 L 30.25 34.871094 L 27.226562 43.757812 C 27.210938 43.808594 27.21875 43.863281 27.246094 43.902344 C 27.277344 43.945312 27.328125 43.972656 27.378906 43.972656 L 31.242188 43.972656 C 31.3125 43.972656 31.371094 43.929688 31.394531 43.867188 L 31.691406 43 C 31.707031 42.949219 31.699219 42.894531 31.667969 42.851562 C 31.640625 42.8125 31.589844 42.785156 31.539062 42.785156 L 30.863281 42.785156 L 32.792969 36.734375 L 36.28125 36.734375 L 34.082031 43.761719 C 34.066406 43.8125 34.074219 43.867188 34.105469 43.90625 C 34.136719 43.949219 34.183594 43.972656 34.238281 43.972656 L 37.964844 43.972656 C 38.03125 43.972656 38.089844 43.933594 38.113281 43.875 L 38.449219 43.078125 C 38.46875 43.027344 38.460938 42.972656 38.433594 42.925781 C 38.402344 42.882812 38.351562 42.855469 38.300781 42.855469 L 37.625 42.855469 L 39.585938 36.699219 L 42.90625 36.699219 L 40.671875 43.761719 C 40.65625 43.8125 40.667969 43.867188 40.695312 43.90625 C 40.726562 43.949219 40.777344 43.972656 40.828125 43.972656 L 44.921875 43.972656 C 44.992188 43.972656 45.050781 43.929688 45.074219 43.871094 L 45.410156 43.003906 C 45.429688 42.953125 45.421875 42.898438 45.390625 42.855469 C 45.359375 42.8125 45.308594 42.785156 45.257812 42.785156 L 44.445312 42.785156 L 46.914062 34.792969 C 46.929688 34.742188 46.921875 34.6875 46.886719 34.644531 L 46.121094 33.617188 C 46.089844 33.578125 46.042969 33.554688 45.992188 33.554688 L 43.0625 33.554688 C 43.015625 33.554688 42.972656 33.574219 42.941406 33.605469 L 42.019531 34.617188 L 40.402344 34.617188 L 39.449219 33.574219 C 39.417969 33.539062 39.375 33.523438 39.328125 33.523438 L 36.96875 33.523438 C 36.957031 33.523438 36.945312 33.523438 36.9375 33.523438 Z M 36.9375 33.523438 "/>
<path style=" stroke:none;fill-rule:nonzero;fill:rgb(0%,0%,0%);fill-opacity:1;" d="M 25.070312 31.617188 C 25.171875 31.714844 25.304688 31.769531 25.441406 31.769531 L 25.449219 31.765625 L 27.605469 31.765625 C 27.75 31.773438 27.886719 31.714844 28 31.609375 L 28.5625 31.042969 C 28.628906 30.980469 28.675781 30.898438 28.699219 30.8125 L 29.300781 28.753906 C 29.359375 28.5625 29.304688 28.359375 29.164062 28.21875 L 28.695312 27.75 C 28.59375 27.648438 28.457031 27.59375 28.3125 27.597656 L 26.328125 27.597656 C 26.300781 27.59375 26.273438 27.597656 26.242188 27.597656 L 26.203125 27.605469 C 26.113281 27.625 26.027344 27.667969 25.960938 27.726562 L 25.257812 28.324219 L 25.25 28.332031 C 25.183594 28.394531 25.132812 28.472656 25.101562 28.558594 L 24.402344 30.511719 C 24.332031 30.707031 24.382812 30.929688 24.527344 31.078125 Z M 28.226562 28.355469 L 28.53125 28.664062 L 27.984375 30.546875 L 27.523438 31.007812 L 25.539062 31.007812 L 25.167969 30.636719 L 25.804688 28.863281 L 26.394531 28.355469 Z M 47.195312 34.417969 L 46.429688 33.390625 L 46.421875 33.382812 C 46.316406 33.25 46.15625 33.175781 45.988281 33.175781 L 43.066406 33.175781 C 42.917969 33.171875 42.773438 33.234375 42.667969 33.339844 L 41.851562 34.238281 L 40.574219 34.238281 L 39.730469 33.316406 L 39.722656 33.308594 C 39.621094 33.203125 39.476562 33.144531 39.328125 33.144531 L 36.980469 33.144531 C 36.953125 33.140625 36.925781 33.144531 36.898438 33.144531 L 36.859375 33.152344 C 36.742188 33.175781 36.636719 33.238281 36.558594 33.324219 L 35.71875 34.273438 L 34.53125 34.273438 L 33.628906 33.339844 C 33.527344 33.238281 33.386719 33.175781 33.242188 33.175781 L 29.609375 33.175781 C 29.382812 33.175781 29.179688 33.320312 29.101562 33.535156 L 28.761719 34.535156 C 28.707031 34.703125 28.734375 34.882812 28.835938 35.023438 C 28.9375 35.167969 29.101562 35.25 29.277344 35.25 L 29.71875 35.25 L 26.863281 43.636719 C 26.769531 43.921875 26.921875 44.226562 27.207031 44.324219 C 27.261719 44.34375 27.316406 44.351562 27.378906 44.351562 L 31.242188 44.351562 C 31.472656 44.351562 31.679688 44.203125 31.757812 43.988281 L 32.054688 43.117188 C 32.109375 42.953125 32.082031 42.773438 31.980469 42.632812 C 31.878906 42.488281 31.714844 42.40625 31.539062 42.40625 L 31.386719 42.40625 L 33.070312 37.113281 L 35.761719 37.113281 L 33.714844 43.652344 C 33.628906 43.9375 33.789062 44.238281 34.078125 44.328125 C 34.128906 44.34375 34.183594 44.351562 34.238281 44.351562 L 37.96875 44.351562 C 38.1875 44.351562 38.382812 44.21875 38.464844 44.019531 L 38.800781 43.214844 C 38.867188 43.050781 38.847656 42.863281 38.746094 42.714844 C 38.648438 42.566406 38.480469 42.476562 38.300781 42.472656 L 38.144531 42.472656 L 39.863281 37.078125 L 42.382812 37.078125 L 40.308594 43.652344 C 40.257812 43.816406 40.289062 43.992188 40.390625 44.132812 C 40.492188 44.269531 40.652344 44.351562 40.824219 44.351562 L 44.921875 44.351562 C 45.148438 44.351562 45.347656 44.214844 45.433594 44.003906 L 45.769531 43.132812 C 45.828125 42.964844 45.804688 42.78125 45.703125 42.636719 C 45.601562 42.492188 45.433594 42.40625 45.257812 42.40625 L 44.960938 42.40625 L 47.277344 34.910156 C 47.332031 34.742188 47.300781 34.558594 47.195312 34.417969 Z M 43.929688 43.164062 L 44.9375 43.164062 L 44.773438 43.589844 L 41.125 43.589844 L 43.425781 36.320312 L 39.304688 36.320312 L 37.101562 43.234375 L 37.96875 43.234375 L 37.816406 43.589844 L 34.535156 43.589844 L 36.800781 36.351562 L 32.511719 36.351562 L 30.34375 43.164062 L 31.230469 43.164062 L 31.085938 43.589844 L 27.6875 43.589844 L 30.78125 34.492188 L 29.582031 34.492188 L 29.769531 33.9375 L 33.144531 33.9375 L 34.207031 35.035156 L 36.0625 35.035156 L 37.0625 33.902344 L 39.234375 33.902344 L 40.234375 34.996094 L 42.1875 34.996094 L 43.15625 33.9375 L 45.882812 33.9375 L 46.515625 34.785156 Z M 25.410156 42.429688 C 25.355469 42.414062 25.304688 42.40625 25.25 42.40625 L 24.746094 42.40625 L 27.695312 33.824219 C 27.75 33.660156 27.722656 33.480469 27.621094 33.335938 C 27.519531 33.195312 27.355469 33.113281 27.179688 33.109375 L 22.367188 33.109375 C 22.335938 33.109375 22.308594 33.109375 22.28125 33.113281 L 22.238281 33.121094 C 22.035156 33.160156 21.875 33.316406 21.824219 33.515625 L 21.558594 34.578125 C 21.484375 34.867188 21.664062 35.164062 21.953125 35.234375 C 21.996094 35.246094 22.039062 35.25 22.085938 35.25 L 22.820312 35.25 L 19.839844 43.734375 C 19.785156 43.902344 19.8125 44.082031 19.914062 44.222656 C 20.015625 44.367188 20.179688 44.449219 20.355469 44.449219 L 24.949219 44.449219 C 25.183594 44.449219 25.390625 44.300781 25.46875 44.070312 L 25.769531 43.105469 C 25.859375 42.820312 25.695312 42.515625 25.410156 42.429688 Z M 20.664062 43.691406 L 23.894531 34.492188 L 22.367188 34.492188 L 22.523438 33.871094 L 26.871094 33.871094 L 23.675781 43.164062 L 24.953125 43.164062 L 24.789062 43.691406 Z M 20.664062 43.691406 "/>
</g>
</svg>
