<?xml version="1.0" encoding="UTF-8"?>
<svg xmlns="http://www.w3.org/2000/svg" xmlns:xlink="http://www.w3.org/1999/xlink" width="50px" height="px" viewBox="0 0 49 49" version="1.1">
<g id="surface1">
<path style=" stroke:none;fill-rule:nonzero;fill:rgb(14.117647%,53.72549%,79.215686%);fill-opacity:1;" d="M 1.398438 17.515625 C 1.398438 17.515625 0.242188 16.664062 1.632812 15.527344 L 4.875 12.574219 C 4.875 12.574219 5.804688 11.582031 6.785156 12.445312 L 36.710938 35.519531 L 36.710938 46.582031 C 36.710938 46.582031 36.695312 48.320312 34.507812 48.128906 Z M 1.398438 17.515625 "/>
<path style=" stroke:none;fill-rule:nonzero;fill:rgb(6.27451%,43.921569%,70.196078%);fill-opacity:1;" d="M 9.113281 24.648438 L 1.398438 31.789062 C 1.398438 31.789062 0.609375 32.390625 1.398438 33.460938 L 4.980469 36.78125 C 4.980469 36.78125 5.832031 37.710938 7.089844 36.652344 L 15.265625 30.335938 Z M 9.113281 24.648438 "/>
<path style=" stroke:none;fill-rule:nonzero;fill:rgb(3.137255%,46.666667%,72.54902%);fill-opacity:1;" d="M 22.65625 24.707031 L 36.800781 13.707031 L 36.710938 2.703125 C 36.710938 2.703125 36.105469 0.300781 34.089844 1.550781 L 15.265625 18.996094 Z M 22.65625 24.707031 "/>
<path style=" stroke:none;fill-rule:nonzero;fill:rgb(23.529412%,60%,83.137255%);fill-opacity:1;" d="M 34.507812 48.144531 C 35.328125 49 36.324219 48.71875 36.324219 48.71875 L 47.347656 43.1875 C 48.757812 42.207031 48.5625 40.992188 48.5625 40.992188 L 48.5625 7.957031 C 48.5625 6.507812 47.101562 6.003906 47.101562 6.003906 L 37.546875 1.3125 C 35.457031 0 34.089844 1.550781 34.089844 1.550781 C 34.089844 1.550781 35.851562 0.261719 36.710938 2.703125 L 36.710938 46.382812 C 36.710938 46.683594 36.648438 46.976562 36.523438 47.242188 C 36.269531 47.757812 35.726562 48.242188 34.414062 48.039062 Z M 34.507812 48.144531 "/>
</g>
</svg>
